<svg width="38" height="41" viewBox="0 0 38 41" fill="none" xmlns="http://www.w3.org/2000/svg">
<path d="M18.9998 22.7384C24.6331 22.7384 29.1998 18.0566 29.1998 12.2814C29.1998 6.50615 24.6331 1.8244 18.9998 1.8244C13.3665 1.8244 8.7998 6.50615 8.7998 12.2814C8.7998 18.0566 13.3665 22.7384 18.9998 22.7384Z" stroke="#D3D7E3" stroke-width="3" stroke-linecap="round" stroke-linejoin="round"/>
<path d="M9.93207 18.0909L2 32.3703L9.20313 32.3355C9.43392 32.3343 9.66102 32.3933 9.862 32.5068C10.063 32.6202 10.2309 32.7841 10.3492 32.9823L13.9416 39.0049L21.2667 22.8894" stroke="#D3D7E3" stroke-width="3" stroke-linecap="round" stroke-linejoin="round"/>
<path d="M28.0345 18.0909L36 32.4693L28.9009 32.435C28.6734 32.4338 28.4496 32.492 28.2515 32.6037C28.0534 32.7155 27.8879 32.877 27.7713 33.0722L24.2308 39.0049L19 27.5022" stroke="#D3D7E3" stroke-width="3" stroke-linecap="round" stroke-linejoin="round"/>
<path d="M18.9997 18.0907C22.1293 18.0907 24.6663 15.4898 24.6663 12.2813C24.6663 9.07283 22.1293 6.47186 18.9997 6.47186C15.8701 6.47186 13.333 9.07283 13.333 12.2813C13.333 15.4898 15.8701 18.0907 18.9997 18.0907Z" stroke="#D3D7E3" stroke-width="3" stroke-linecap="round" stroke-linejoin="round"/>
</svg>
