<svg width="26" height="29" viewBox="0 0 26 29" fill="none" xmlns="http://www.w3.org/2000/svg">
<path d="M3.99244 13.6609C3.89488 15.5525 4.00714 17.5661 2.3406 18.833C1.95745 19.1237 1.64653 19.5011 1.43261 19.9351C1.21869 20.3691 1.10767 20.8478 1.1084 21.333C1.1084 22.6839 2.1535 23.8356 3.51399 23.8356H22.7587C24.1192 23.8356 25.1643 22.6839 25.1643 21.333C25.1643 20.3492 24.7072 19.4224 23.9321 18.833C22.2655 17.5661 22.3778 15.5525 22.2803 13.6609C22.16 11.2844 21.1441 9.04541 19.4425 7.4064C17.7409 5.76739 15.4834 4.85352 13.1363 4.85352C10.7893 4.85352 8.5318 5.76739 6.83017 7.4064C5.12854 9.04541 4.1127 11.2844 3.99244 13.6609Z" stroke="#F5F5F5" stroke-linecap="round" stroke-linejoin="round"/>
<path d="M17.1466 23.8358C17.1466 24.9139 16.7241 25.9478 15.9723 26.7102C15.2204 27.4725 14.2006 27.9008 13.1372 27.9008C12.0739 27.9008 11.0541 27.4725 10.3022 26.7102C9.55034 25.9478 9.12793 24.9139 9.12793 23.8358M11.1326 2.32516C11.1326 3.4471 12.0307 4.86578 13.1372 4.86578C14.2438 4.86578 15.1419 3.4471 15.1419 2.32516C15.1419 1.20322 14.2438 0.800781 13.1372 0.800781C12.0307 0.800781 11.1326 1.20322 11.1326 2.32516Z" stroke="#F5F5F5" stroke-linecap="round" stroke-linejoin="round"/>
</svg>
