<svg width="36" height="29" viewBox="0 0 36 29" fill="none" xmlns="http://www.w3.org/2000/svg">
<path d="M34.7143 1.50657e-06H25.5214C23.5487 1.50657e-06 21.6201 0.581983 19.9607 1.6799L18 2.97182L16.0393 1.6799C14.3816 0.582193 12.4508 -0.00108191 10.4786 1.50657e-06H1.28571C0.574554 1.50657e-06 0 0.590238 0 1.32081V24.7652C0 25.4957 0.574554 26.086 1.28571 26.086H10.4786C12.4513 26.086 14.3799 26.6679 16.0393 27.7659L17.8232 28.9463C17.8754 28.9794 17.9357 29 17.996 29C18.0562 29 18.1165 28.9835 18.1688 28.9463L19.9527 27.7659C21.6161 26.6679 23.5487 26.086 25.5214 26.086H34.7143C35.4254 26.086 36 25.4957 36 24.7652V1.32081C36 0.590238 35.4254 1.50657e-06 34.7143 1.50657e-06ZM10.4786 23.1141H2.89286V2.97182H10.4786C11.9009 2.97182 13.283 3.3887 14.4763 4.17706L16.4371 5.46897L16.7143 5.65471V24.7239C14.8018 23.6672 12.6643 23.1141 10.4786 23.1141ZM33.1071 23.1141H25.5214C23.3357 23.1141 21.1982 23.6672 19.2857 24.7239V5.65471L19.5629 5.46897L21.5237 4.17706C22.717 3.3887 24.0991 2.97182 25.5214 2.97182H33.1071V23.1141ZM13.3754 8.25505H5.91027C5.75357 8.25505 5.625 8.39539 5.625 8.56462V10.422C5.625 10.5912 5.75357 10.7316 5.91027 10.7316H13.3714C13.5281 10.7316 13.6567 10.5912 13.6567 10.422V8.56462C13.6607 8.39539 13.5321 8.25505 13.3754 8.25505ZM22.3393 8.56462V10.422C22.3393 10.5912 22.4679 10.7316 22.6246 10.7316H30.0857C30.2424 10.7316 30.371 10.5912 30.371 10.422V8.56462C30.371 8.39539 30.2424 8.25505 30.0857 8.25505H22.6246C22.4679 8.25505 22.3393 8.39539 22.3393 8.56462ZM13.3754 14.0336H5.91027C5.75357 14.0336 5.625 14.1739 5.625 14.3432V16.2005C5.625 16.3698 5.75357 16.5101 5.91027 16.5101H13.3714C13.5281 16.5101 13.6567 16.3698 13.6567 16.2005V14.3432C13.6607 14.1739 13.5321 14.0336 13.3754 14.0336ZM30.0897 14.0336H22.6246C22.4679 14.0336 22.3393 14.1739 22.3393 14.3432V16.2005C22.3393 16.3698 22.4679 16.5101 22.6246 16.5101H30.0857C30.2424 16.5101 30.371 16.3698 30.371 16.2005V14.3432C30.375 14.1739 30.2464 14.0336 30.0897 14.0336Z" fill="#D1D5E2"/>
</svg>
