<svg width="38" height="36" viewBox="0 0 38 36" fill="none" xmlns="http://www.w3.org/2000/svg">
<path d="M31.4231 1.97681H6.57692C5.36411 1.9803 4.20195 2.46972 3.34436 3.33815C2.48677 4.20657 2.00345 5.3834 2 6.61154V22.502C2.00345 23.7302 2.48677 24.907 3.34436 25.7754C4.20195 26.6439 5.36411 27.1333 6.57692 27.1368H9.84615V33.7578L17.506 27.2907C17.6236 27.1912 17.772 27.1367 17.9252 27.1368H31.4231C32.6359 27.1333 33.798 26.6439 34.6556 25.7754C35.5132 24.907 35.9965 23.7302 36 22.502V6.61154C35.9965 5.3834 35.5132 4.20657 34.6556 3.33815C33.798 2.46972 32.6359 1.9803 31.4231 1.97681Z" stroke="#D1D5E2" stroke-width="3" stroke-linejoin="round"/>
<path d="M19 11.2656C20.6208 11.2656 21.9373 12.6129 21.9375 14.2783C21.9375 15.9439 20.6209 17.292 19 17.292C17.3791 17.292 16.0625 15.9439 16.0625 14.2783C16.0627 12.6129 17.3792 11.2656 19 11.2656Z" fill="#D4D8E3" stroke="#D1D5E2" stroke-width="0.125"/>
<path d="M27 11.2656C28.6208 11.2656 29.9373 12.6129 29.9375 14.2783C29.9375 15.9439 28.6209 17.292 27 17.292C25.3791 17.292 24.0625 15.9439 24.0625 14.2783C24.0627 12.6129 25.3792 11.2656 27 11.2656Z" fill="#D4D8E3" stroke="#D1D5E2" stroke-width="0.125"/>
<path d="M11 11.2656C12.6208 11.2656 13.9373 12.6129 13.9375 14.2783C13.9375 15.9439 12.6209 17.292 11 17.292C9.37912 17.292 8.0625 15.9439 8.0625 14.2783C8.0627 12.6129 9.37925 11.2656 11 11.2656Z" fill="#D4D8E3" stroke="#D1D5E2" stroke-width="0.125"/>
</svg>
