<svg width="30" height="30" viewBox="0 0 30 30" fill="none" xmlns="http://www.w3.org/2000/svg">
<path d="M15 0C6.71611 0 0 6.71611 0 15C0 23.2709 6.72981 30 15 30C23.2832 30 30 23.2832 30 15C30 6.72909 23.2709 0 15 0ZM22.7885 17.3077H14.1346C14.0581 17.3077 13.9847 17.2773 13.9306 17.2232C13.8765 17.1691 13.8462 17.0957 13.8462 17.0192V4.90385C13.8462 4.82734 13.8765 4.75397 13.9306 4.69987C13.9847 4.64578 14.0581 4.61538 14.1346 4.61538H15.8654C15.9419 4.61538 16.0153 4.64578 16.0694 4.69987C16.1235 4.75397 16.1538 4.82734 16.1538 4.90385V15H22.7885C22.865 15 22.9383 15.0304 22.9924 15.0845C23.0465 15.1386 23.0769 15.212 23.0769 15.2885V17.0192C23.0769 17.0957 23.0465 17.1691 22.9924 17.2232C22.9383 17.2773 22.865 17.3077 22.7885 17.3077Z" fill="#F5F5F5"/>
</svg>
