<svg width="27" height="21" viewBox="0 0 27 21" fill="none" xmlns="http://www.w3.org/2000/svg">
<path d="M22.8529 1.76074C21.1057 0.944785 19.2449 0.343558 17.2847 0C17.0432 0.429448 16.7591 1.01636 16.5744 1.48875C14.5006 1.17382 12.4409 1.17382 10.4096 1.48875C10.2108 1.01636 9.92668 0.429448 9.6852 0C7.72497 0.343558 5.86417 0.944785 4.117 1.76074C0.594262 7.11452 -0.357446 12.3395 0.111306 17.4785C2.45506 19.2393 4.71359 20.2986 6.94372 21C7.4977 20.2413 7.98065 19.4254 8.40679 18.5808C7.59713 18.2802 6.83008 17.8937 6.10565 17.4499C6.30451 17.3067 6.48917 17.1493 6.67383 17.0061C11.1199 19.0961 15.9352 19.0961 20.3244 17.0061C20.5091 17.1636 20.6938 17.3067 20.8926 17.4499C20.1682 17.8937 19.3869 18.2658 18.5915 18.5808C19.0176 19.4254 19.5006 20.2413 20.0546 21C22.2847 20.2986 24.5574 19.2393 26.887 17.4785C27.441 11.5092 25.9353 6.34151 22.8813 1.76074H22.8529ZM9.00338 14.3292C7.66815 14.3292 6.5744 13.0838 6.5744 11.5521C6.5744 10.0204 7.63974 8.77505 9.00338 8.77505C10.367 8.77505 11.4466 10.0204 11.4324 11.5521C11.4324 13.0695 10.367 14.3292 9.00338 14.3292ZM17.9665 14.3292C16.6313 14.3292 15.5375 13.0838 15.5375 11.5521C15.5375 10.0204 16.6028 8.77505 17.9665 8.77505C19.3301 8.77505 20.4097 10.0204 20.3955 11.5521C20.3955 13.0695 19.3301 14.3292 17.9665 14.3292Z" fill="#F5F5F5"/>
</svg>
