<svg width="47" height="47" viewBox="0 0 47 47" fill="none" xmlns="http://www.w3.org/2000/svg">
<path d="M23.3233 46.1607L0 22.7253V0H47L47 46.1607H23.3233Z" fill="#414141"/>
<path d="M17.8912 29.375C17.9567 29.375 18.0223 29.3684 18.0879 29.3586L23.6017 28.3914C23.6672 28.3783 23.7295 28.3488 23.7754 28.2996L37.6714 14.4022C37.7018 14.3719 37.7259 14.3359 37.7424 14.2962C37.7588 14.2566 37.7673 14.214 37.7673 14.1711C37.7673 14.1282 37.7588 14.0857 37.7424 14.046C37.7259 14.0063 37.7018 13.9703 37.6714 13.94L32.2232 8.4879C32.1609 8.42561 32.0789 8.39282 31.9904 8.39282C31.9019 8.39282 31.82 8.42561 31.7577 8.4879L17.8617 22.3853C17.8125 22.4345 17.783 22.4935 17.7699 22.559L16.8028 28.0734C16.7709 28.249 16.7823 28.4298 16.836 28.6C16.8897 28.7703 16.9841 28.9249 17.111 29.0504C17.3273 29.2602 17.5994 29.375 17.8912 29.375ZM20.1006 23.6573L31.9904 11.7696L34.3933 14.1727L22.5035 26.0604L19.5892 26.5752L20.1006 23.6573Z" fill="#F5F5F5"/>
</svg>
