<svg width="34" height="30" viewBox="0 0 34 30" fill="none" xmlns="http://www.w3.org/2000/svg">
<path d="M22.8082 14.6393C22.8082 15.3484 22.6637 16.0506 22.3829 16.7057C22.1022 17.3609 21.6907 17.9562 21.172 18.4576C20.6533 18.9591 20.0374 19.3568 19.3597 19.6282C18.6819 19.8996 17.9555 20.0393 17.2219 20.0393C16.4884 20.0393 15.762 19.8996 15.0842 19.6282C14.4065 19.3568 13.7906 18.9591 13.2719 18.4576C12.7532 17.9562 12.3417 17.3609 12.061 16.7057C11.7802 16.0506 11.6357 15.3484 11.6357 14.6393C11.6357 13.2071 12.2243 11.8336 13.2719 10.8209C14.3195 9.80819 15.7404 9.23926 17.2219 9.23926C18.7035 9.23926 20.1244 9.80819 21.172 10.8209C22.2196 11.8336 22.8082 13.2071 22.8082 14.6393Z" stroke="#F5F5F5" stroke-linecap="round" stroke-linejoin="round"/>
<path d="M31.6528 18.2426C32.4887 18.0245 32.9067 17.9147 33.0716 17.7075C33.2366 17.4987 33.2366 17.1646 33.2366 16.4949V13.5038C33.2366 12.8342 33.2366 12.4986 33.0716 12.2913C32.9067 12.0841 32.4887 11.9743 31.6528 11.7578C28.5301 10.9443 26.5748 7.79079 27.3803 4.79352C27.6029 3.96919 27.7134 3.55625 27.6077 3.31499C27.502 3.07372 27.1978 2.90669 26.5908 2.57417L23.8285 1.05853C23.2328 0.733746 22.9349 0.569808 22.6675 0.603833C22.4 0.637858 22.0974 0.928615 21.4937 1.51167C19.1572 3.76195 15.2915 3.76195 12.9535 1.51167C12.3498 0.930161 12.0487 0.639404 11.7813 0.603833C11.5139 0.569808 11.216 0.732199 10.6203 1.06007L7.85791 2.57417C7.24939 2.90669 6.94512 3.07372 6.84104 3.31653C6.73534 3.55625 6.84584 3.96919 7.06683 4.79352C7.87232 7.79079 5.91704 10.9443 2.79275 11.7578C1.95683 11.9743 1.53887 12.0825 1.37393 12.2913C1.20898 12.5001 1.20898 12.8342 1.20898 13.5038V16.4949C1.20898 17.1646 1.20898 17.5002 1.37393 17.7075C1.53887 17.9147 1.95683 18.0245 2.79275 18.2426C5.91544 19.0561 7.87072 22.2095 7.06523 25.2053C6.84264 26.0296 6.73214 26.4425 6.83783 26.6838C6.94352 26.9251 7.24779 27.0921 7.85471 27.4262L10.6171 28.9387C11.2128 29.2666 11.5107 29.429 11.7781 29.3949C12.0455 29.3609 12.3482 29.0702 12.9519 28.4871C15.2899 26.2337 19.1588 26.2337 21.4969 28.4871C22.1006 29.0686 22.4016 29.3594 22.6691 29.3949C22.9365 29.429 23.2344 29.2666 23.8317 28.9387L26.5924 27.4246C27.201 27.0921 27.5052 26.9251 27.6093 26.6822C27.7134 26.4394 27.6045 26.0296 27.3835 25.2053C26.5764 22.2095 28.5301 19.0561 31.6528 18.2426Z" stroke="#F5F5F5" stroke-linecap="round" stroke-linejoin="round"/>
</svg>
