<svg width="38" height="39" viewBox="0 0 38 39" fill="none" xmlns="http://www.w3.org/2000/svg">
<path d="M35.2906 19.4237C35.2906 19.4199 35.2869 19.4199 35.2869 19.4161L35.2201 19.3361C35.2164 19.3323 35.2127 19.3247 35.2053 19.3208C35.1793 19.2904 35.1496 19.2599 35.1236 19.2294L20.7846 4.52446L19.8234 3.53804C19.6044 3.31476 19.3083 3.18945 18.9996 3.18945C18.6909 3.18945 18.3948 3.31476 18.1758 3.53804L2.87559 19.2332C2.59918 19.5154 2.39519 19.8635 2.28184 20.2463L2.25957 20.3263L2.24844 20.3682L2.2373 20.4139C2.22988 20.4406 2.22617 20.4672 2.22246 20.4939C2.22246 20.4977 2.22246 20.5053 2.21875 20.5091C2.19648 20.6234 2.18535 20.7376 2.18164 20.8557V20.9814C2.18164 21.0004 2.18164 21.0195 2.18535 21.0385C2.18535 21.0576 2.18535 21.0728 2.18906 21.0918C2.18906 21.1109 2.19277 21.1299 2.19277 21.149C2.19277 21.1718 2.19648 21.1947 2.2002 21.2175C2.2002 21.229 2.20391 21.2404 2.20391 21.2518L2.21504 21.347V21.3508C2.4043 22.5124 3.40996 23.3884 4.59004 23.3884H6.16719V35.8006H31.8357V23.396H33.4463C33.7654 23.396 34.0734 23.3313 34.3555 23.2094C34.6375 23.0875 34.901 22.9085 35.1273 22.68C35.3484 22.4538 35.5236 22.1849 35.6427 21.8887C35.7619 21.5926 35.8225 21.2751 35.8213 20.9547C35.8213 20.3949 35.6357 19.8579 35.2906 19.4237ZM21.0777 33.0584H16.9215V25.2889H21.0777V33.0584ZM29.1639 20.6539V33.0584H23.4527V24.3749C23.4527 23.5332 22.7885 22.8514 21.9684 22.8514H16.0309C15.2107 22.8514 14.5465 23.5332 14.5465 24.3749V33.0584H8.83535V20.6539H5.27285L19.0033 6.57348L19.8605 7.45327L32.7301 20.6539H29.1639Z" fill="#CFD3E1"/>
</svg>
