<svg width="21" height="21" viewBox="0 0 21 21" fill="none" xmlns="http://www.w3.org/2000/svg">
<path d="M10.5 0C8.4233 0 6.39323 0.615814 4.66652 1.76957C2.9398 2.92332 1.59399 4.5632 0.799269 6.48182C0.00454945 8.40045 -0.203385 10.5116 0.201759 12.5484C0.606904 14.5852 1.60693 16.4562 3.07538 17.9246C4.54383 19.3931 6.41475 20.3931 8.45155 20.7982C10.4884 21.2034 12.5996 20.9955 14.5182 20.2007C16.4368 19.406 18.0767 18.0602 19.2304 16.3335C20.3842 14.6068 21 12.5767 21 10.5C21 7.71522 19.8938 5.04451 17.9246 3.07538C15.9555 1.10625 13.2848 0 10.5 0ZM15.6581 7.1925L13.9388 15.3169C13.8075 15.8944 13.4663 16.0256 12.9806 15.7631L10.3556 13.8206L9.04313 15.0412C8.98131 15.122 8.9019 15.1876 8.81093 15.2331C8.71996 15.2786 8.61983 15.3028 8.51813 15.3037L8.70188 12.6787L13.5581 8.28187C13.7813 8.09812 13.5581 7.99312 13.2431 8.17687L7.28438 11.9175L4.65938 11.1037C4.095 10.9331 4.08188 10.5394 4.7775 10.2769L14.8969 6.33937C15.3956 6.195 15.8156 6.48375 15.6581 7.1925Z" fill="#F5F5F5"/>
</svg>
