<svg width="38" height="35" viewBox="0 0 38 35" fill="none" xmlns="http://www.w3.org/2000/svg">
<path d="M32.0769 9H5.92308C3.75642 9 2 10.7909 2 13V29C2 31.2091 3.75642 33 5.92308 33H32.0769C34.2436 33 36 31.2091 36 29V13C36 10.7909 34.2436 9 32.0769 9Z" stroke="#D4D8E4" stroke-width="3" stroke-linejoin="round"/>
<path d="M32 8.66607V6.16579C31.9998 5.55256 31.8655 4.94693 31.6068 4.39212C31.348 3.8373 30.9711 3.34697 30.503 2.95612C30.0349 2.56526 29.4871 2.28352 28.8987 2.13098C28.3103 1.97844 27.6958 1.95887 27.0991 2.07367L5.35535 5.81992C4.4111 6.00156 3.55924 6.51015 2.9467 7.25795C2.33417 8.00575 1.99935 8.94589 2 9.91621V14" stroke="#D4D8E4" stroke-width="3" stroke-linejoin="round"/>
<path d="M28.3047 19.5195C28.4987 19.4809 28.7001 19.5005 28.8828 19.5762C29.0654 19.6518 29.2212 19.78 29.3311 19.9443C29.4409 20.1088 29.5 20.3022 29.5 20.5C29.5 20.7652 29.3946 21.0195 29.207 21.207C29.0195 21.3946 28.7652 21.5 28.5 21.5C28.3022 21.5 28.1088 21.4409 27.9443 21.3311C27.78 21.2212 27.6518 21.0654 27.5762 20.8828C27.5005 20.7001 27.4809 20.4987 27.5195 20.3047C27.5582 20.1108 27.6532 19.9328 27.793 19.793C27.9328 19.6532 28.1108 19.5582 28.3047 19.5195Z" fill="#585858" stroke="#D4D8E4" stroke-width="3"/>
</svg>
