<svg width="544" height="140" viewBox="0 0 544 140" fill="none" xmlns="http://www.w3.org/2000/svg">
<g filter="url(#filter0_d_2008_228)">
<path d="M4 0V34H405.105L419 19.9633V0H4Z" fill="white"/>
<path d="M57 34L91.9295 69.0388H297.179L342 114" stroke="white"/>
<path d="M352.082 129V117.364H356.741C357.597 117.364 358.311 117.491 358.883 117.744C359.455 117.998 359.885 118.35 360.173 118.801C360.46 119.248 360.604 119.763 360.604 120.347C360.604 120.801 360.513 121.201 360.332 121.545C360.15 121.886 359.9 122.167 359.582 122.386C359.267 122.602 358.907 122.756 358.502 122.847V122.96C358.945 122.979 359.36 123.104 359.746 123.335C360.137 123.566 360.453 123.89 360.695 124.307C360.938 124.72 361.059 125.212 361.059 125.784C361.059 126.402 360.906 126.953 360.599 127.438C360.296 127.919 359.847 128.299 359.252 128.58C358.657 128.86 357.924 129 357.053 129H352.082ZM354.542 126.989H356.548C357.233 126.989 357.733 126.858 358.048 126.597C358.362 126.331 358.519 125.979 358.519 125.54C358.519 125.218 358.442 124.934 358.286 124.688C358.131 124.441 357.909 124.248 357.621 124.108C357.337 123.968 356.998 123.898 356.604 123.898H354.542V126.989ZM354.542 122.233H356.366C356.703 122.233 357.002 122.174 357.263 122.057C357.529 121.936 357.737 121.765 357.888 121.545C358.044 121.326 358.121 121.062 358.121 120.756C358.121 120.335 357.972 119.996 357.673 119.739C357.377 119.481 356.957 119.352 356.411 119.352H354.542V122.233ZM362.614 129V120.273H365.035V129H362.614ZM363.83 119.148C363.47 119.148 363.162 119.028 362.904 118.79C362.65 118.547 362.523 118.258 362.523 117.92C362.523 117.587 362.65 117.301 362.904 117.062C363.162 116.82 363.47 116.699 363.83 116.699C364.19 116.699 364.497 116.82 364.751 117.062C365.008 117.301 365.137 117.587 365.137 117.92C365.137 118.258 365.008 118.547 364.751 118.79C364.497 119.028 364.19 119.148 363.83 119.148ZM366.292 131.557V127.08H366.962C367.156 126.958 367.311 126.765 367.428 126.5C367.549 126.235 367.648 125.922 367.724 125.562C367.803 125.203 367.864 124.814 367.906 124.398C367.951 123.977 367.991 123.553 368.025 123.125L368.252 120.273H374.945V127.08H376.298V131.557H373.991V129H368.656V131.557H366.292ZM369.371 127.08H372.661V122.136H370.309L370.218 123.125C370.154 124.057 370.061 124.848 369.94 125.5C369.818 126.148 369.629 126.674 369.371 127.08ZM385.69 129.159C384.841 129.159 384.085 129.013 383.423 128.722C382.763 128.426 382.243 128.021 381.86 127.506C381.481 126.987 381.286 126.388 381.275 125.71H383.752C383.767 125.994 383.86 126.244 384.031 126.46C384.205 126.672 384.436 126.837 384.724 126.955C385.012 127.072 385.335 127.131 385.695 127.131C386.07 127.131 386.402 127.064 386.69 126.932C386.978 126.799 387.203 126.616 387.366 126.381C387.529 126.146 387.61 125.875 387.61 125.568C387.61 125.258 387.523 124.983 387.349 124.744C387.178 124.502 386.932 124.312 386.61 124.176C386.292 124.04 385.913 123.972 385.474 123.972H384.388V122.165H385.474C385.845 122.165 386.173 122.1 386.457 121.972C386.745 121.843 386.968 121.665 387.127 121.438C387.286 121.206 387.366 120.938 387.366 120.631C387.366 120.339 387.296 120.083 387.156 119.864C387.019 119.64 386.826 119.466 386.576 119.341C386.33 119.216 386.042 119.153 385.712 119.153C385.379 119.153 385.074 119.214 384.798 119.335C384.521 119.453 384.299 119.621 384.133 119.841C383.966 120.061 383.877 120.318 383.866 120.614H381.508C381.519 119.943 381.71 119.352 382.082 118.841C382.453 118.33 382.953 117.93 383.582 117.642C384.214 117.35 384.928 117.205 385.724 117.205C386.527 117.205 387.229 117.35 387.832 117.642C388.434 117.934 388.902 118.328 389.235 118.824C389.572 119.316 389.739 119.869 389.735 120.483C389.739 121.134 389.536 121.678 389.127 122.114C388.722 122.549 388.193 122.826 387.542 122.943V123.034C388.398 123.144 389.049 123.441 389.496 123.926C389.947 124.407 390.171 125.009 390.167 125.733C390.171 126.396 389.979 126.985 389.593 127.5C389.21 128.015 388.682 128.42 388.008 128.716C387.334 129.011 386.561 129.159 385.69 129.159ZM397.396 123.261V125.182H392.089V123.261H397.396ZM401.121 120.273L402.724 123.324L404.366 120.273H406.849L404.32 124.636L406.917 129H404.445L402.724 125.983L401.031 129H398.531L401.121 124.636L398.621 120.273H401.121ZM411.308 131.557V127.08H411.978C412.171 126.958 412.326 126.765 412.444 126.5C412.565 126.235 412.664 125.922 412.739 125.562C412.819 125.203 412.879 124.814 412.921 124.398C412.967 123.977 413.006 123.553 413.04 123.125L413.268 120.273H419.961V127.08H421.313V131.557H419.006V129H413.671V131.557H411.308ZM414.387 127.08H417.677V122.136H415.325L415.234 123.125C415.169 124.057 415.076 124.848 414.955 125.5C414.834 126.148 414.645 126.674 414.387 127.08ZM426.667 129.17C425.784 129.17 425.021 128.983 424.377 128.608C423.737 128.229 423.243 127.703 422.894 127.028C422.546 126.35 422.371 125.564 422.371 124.67C422.371 123.769 422.546 122.981 422.894 122.307C423.243 121.629 423.737 121.102 424.377 120.727C425.021 120.348 425.784 120.159 426.667 120.159C427.549 120.159 428.311 120.348 428.951 120.727C429.595 121.102 430.091 121.629 430.44 122.307C430.788 122.981 430.962 123.769 430.962 124.67C430.962 125.564 430.788 126.35 430.44 127.028C430.091 127.703 429.595 128.229 428.951 128.608C428.311 128.983 427.549 129.17 426.667 129.17ZM426.678 127.295C427.08 127.295 427.415 127.182 427.684 126.955C427.953 126.723 428.156 126.409 428.292 126.011C428.432 125.614 428.502 125.161 428.502 124.653C428.502 124.146 428.432 123.693 428.292 123.295C428.156 122.898 427.953 122.583 427.684 122.352C427.415 122.121 427.08 122.006 426.678 122.006C426.273 122.006 425.932 122.121 425.656 122.352C425.383 122.583 425.176 122.898 425.036 123.295C424.9 123.693 424.832 124.146 424.832 124.653C424.832 125.161 424.9 125.614 425.036 126.011C425.176 126.409 425.383 126.723 425.656 126.955C425.932 127.182 426.273 127.295 426.678 127.295ZM440.683 129.159C440.084 129.155 439.506 129.055 438.95 128.858C438.397 128.661 437.9 128.341 437.461 127.898C437.022 127.455 436.673 126.867 436.415 126.136C436.162 125.405 436.035 124.508 436.035 123.443C436.039 122.466 436.15 121.593 436.37 120.824C436.594 120.051 436.912 119.396 437.325 118.858C437.741 118.32 438.239 117.911 438.819 117.631C439.398 117.347 440.048 117.205 440.768 117.205C441.544 117.205 442.23 117.356 442.825 117.659C443.419 117.958 443.897 118.366 444.256 118.881C444.62 119.396 444.84 119.973 444.915 120.614H442.489C442.395 120.208 442.196 119.89 441.893 119.659C441.59 119.428 441.215 119.312 440.768 119.312C440.01 119.312 439.434 119.642 439.04 120.301C438.65 120.96 438.451 121.856 438.444 122.989H438.523C438.698 122.644 438.933 122.35 439.228 122.108C439.527 121.862 439.866 121.674 440.245 121.545C440.628 121.413 441.031 121.347 441.455 121.347C442.145 121.347 442.758 121.509 443.296 121.835C443.834 122.157 444.258 122.6 444.569 123.165C444.879 123.729 445.035 124.375 445.035 125.102C445.035 125.89 444.851 126.591 444.484 127.205C444.12 127.818 443.611 128.299 442.955 128.648C442.304 128.992 441.546 129.163 440.683 129.159ZM440.671 127.227C441.05 127.227 441.389 127.136 441.688 126.955C441.987 126.773 442.222 126.527 442.393 126.216C442.563 125.905 442.648 125.557 442.648 125.17C442.648 124.784 442.563 124.437 442.393 124.131C442.226 123.824 441.995 123.58 441.7 123.398C441.404 123.216 441.067 123.125 440.688 123.125C440.404 123.125 440.141 123.178 439.898 123.284C439.66 123.39 439.45 123.538 439.268 123.727C439.09 123.917 438.95 124.136 438.847 124.386C438.745 124.633 438.694 124.896 438.694 125.176C438.694 125.551 438.779 125.894 438.95 126.205C439.124 126.515 439.359 126.763 439.654 126.949C439.953 127.134 440.292 127.227 440.671 127.227ZM452.239 123.261V125.182H446.933V123.261H452.239ZM453.66 122.176V120.273H461.569V122.176H458.756V129H456.45V122.176H453.66ZM465.349 125.807L468.491 120.273H470.877V129H468.57V123.449L465.44 129H463.036V120.273H465.349V125.807ZM481.68 126.324L484.043 120.273H485.884L482.481 129H480.873L477.549 120.273H479.384L481.68 126.324ZM478.833 120.273V129H476.521V120.273H478.833ZM484.646 129V120.273H486.93V129H484.646ZM488.802 129V120.273H491.222V129H488.802ZM490.018 119.148C489.658 119.148 489.349 119.028 489.092 118.79C488.838 118.547 488.711 118.258 488.711 117.92C488.711 117.587 488.838 117.301 489.092 117.062C489.349 116.82 489.658 116.699 490.018 116.699C490.378 116.699 490.684 116.82 490.938 117.062C491.196 117.301 491.325 117.587 491.325 117.92C491.325 118.258 491.196 118.547 490.938 118.79C490.684 119.028 490.378 119.148 490.018 119.148ZM497.104 129.17C496.21 129.17 495.442 128.981 494.798 128.602C494.157 128.22 493.665 127.689 493.32 127.011C492.979 126.333 492.809 125.553 492.809 124.67C492.809 123.777 492.981 122.992 493.326 122.318C493.674 121.64 494.169 121.112 494.809 120.733C495.449 120.35 496.21 120.159 497.093 120.159C497.854 120.159 498.521 120.297 499.093 120.574C499.665 120.85 500.118 121.239 500.451 121.739C500.784 122.239 500.968 122.826 501.002 123.5H498.718C498.654 123.064 498.483 122.714 498.207 122.449C497.934 122.18 497.576 122.045 497.133 122.045C496.758 122.045 496.43 122.148 496.15 122.352C495.873 122.553 495.657 122.847 495.502 123.233C495.347 123.619 495.269 124.087 495.269 124.636C495.269 125.193 495.345 125.667 495.496 126.057C495.652 126.447 495.87 126.744 496.15 126.949C496.43 127.153 496.758 127.256 497.133 127.256C497.409 127.256 497.657 127.199 497.877 127.085C498.101 126.972 498.284 126.807 498.428 126.591C498.576 126.371 498.673 126.108 498.718 125.801H501.002C500.964 126.468 500.782 127.055 500.457 127.562C500.135 128.066 499.69 128.46 499.121 128.744C498.553 129.028 497.881 129.17 497.104 129.17ZM507.665 129V122.17H506.029C505.586 122.17 505.249 122.273 505.018 122.477C504.787 122.682 504.673 122.924 504.677 123.205C504.673 123.489 504.783 123.729 505.006 123.926C505.234 124.119 505.567 124.216 506.006 124.216H508.472V125.852H506.006C505.26 125.852 504.614 125.739 504.069 125.511C503.523 125.284 503.103 124.968 502.808 124.562C502.512 124.153 502.366 123.678 502.37 123.136C502.366 122.568 502.512 122.07 502.808 121.642C503.103 121.21 503.525 120.875 504.075 120.636C504.628 120.394 505.279 120.273 506.029 120.273H509.921V129H507.665ZM502.12 129L504.546 124.455H506.859L504.438 129H502.12ZM519.433 120.273V127.33H520.825V131.807H518.472V129H511.802V120.273H514.114V127.097H517.148V120.273H519.433ZM522.317 129V120.273H524.738V129H522.317ZM523.533 119.148C523.174 119.148 522.865 119.028 522.607 118.79C522.353 118.547 522.227 118.258 522.227 117.92C522.227 117.587 522.353 117.301 522.607 117.062C522.865 116.82 523.174 116.699 523.533 116.699C523.893 116.699 524.2 116.82 524.454 117.062C524.711 117.301 524.84 117.587 524.84 117.92C524.84 118.258 524.711 118.547 524.454 118.79C524.2 119.028 523.893 119.148 523.533 119.148ZM526.677 129V120.273H530.398C531.474 120.273 532.325 120.477 532.95 120.886C533.575 121.295 533.887 121.877 533.887 122.631C533.887 123.104 533.711 123.498 533.359 123.812C533.006 124.127 532.518 124.339 531.893 124.449C532.415 124.487 532.861 124.606 533.228 124.807C533.599 125.004 533.881 125.259 534.075 125.574C534.272 125.888 534.37 126.237 534.37 126.619C534.37 127.116 534.237 127.542 533.972 127.898C533.711 128.254 533.326 128.527 532.819 128.716C532.315 128.905 531.7 129 530.972 129H526.677ZM528.933 127.188H530.972C531.309 127.188 531.573 127.108 531.762 126.949C531.955 126.786 532.052 126.564 532.052 126.284C532.052 125.973 531.955 125.729 531.762 125.551C531.573 125.373 531.309 125.284 530.972 125.284H528.933V127.188ZM528.933 123.864H530.45C530.692 123.864 530.898 123.83 531.069 123.761C531.243 123.689 531.376 123.587 531.467 123.455C531.561 123.322 531.609 123.165 531.609 122.983C531.609 122.714 531.501 122.504 531.285 122.352C531.069 122.201 530.773 122.125 530.398 122.125H528.933V123.864Z" fill="white"/>
<path d="M24.9034 11.3636V23H22.4716V13.3636H17.767V23H15.3352V11.3636H24.9034ZM31.1776 23.1705C30.2798 23.1705 29.5071 22.9886 28.8594 22.625C28.2154 22.2576 27.7192 21.7386 27.3707 21.0682C27.0223 20.3939 26.848 19.5966 26.848 18.6761C26.848 17.7784 27.0223 16.9905 27.3707 16.3125C27.7192 15.6345 28.2098 15.1061 28.8423 14.7273C29.4787 14.3485 30.2249 14.1591 31.081 14.1591C31.6567 14.1591 32.1927 14.2519 32.6889 14.4375C33.1889 14.6193 33.6245 14.8939 33.9957 15.2614C34.3707 15.6288 34.6624 16.0909 34.8707 16.6477C35.0791 17.2008 35.1832 17.8485 35.1832 18.5909V19.2557H27.8139V17.7557H32.9048C32.9048 17.4072 32.8291 17.0985 32.6776 16.8295C32.526 16.5606 32.3158 16.3504 32.0469 16.1989C31.7817 16.0436 31.473 15.9659 31.1207 15.9659C30.7533 15.9659 30.4276 16.0511 30.1435 16.2216C29.8632 16.3883 29.6435 16.6136 29.4844 16.8977C29.3253 17.178 29.2438 17.4905 29.2401 17.8352V19.2614C29.2401 19.6932 29.3196 20.0663 29.4787 20.3807C29.6416 20.6951 29.8707 20.9375 30.1662 21.108C30.4616 21.2784 30.812 21.3636 31.2173 21.3636C31.4863 21.3636 31.7325 21.3258 31.956 21.25C32.1795 21.1742 32.3707 21.0606 32.5298 20.9091C32.6889 20.7576 32.8101 20.572 32.8935 20.3523L35.1321 20.5C35.0185 21.0379 34.7855 21.5076 34.4332 21.9091C34.0848 22.3068 33.634 22.6174 33.081 22.8409C32.5317 23.0606 31.8973 23.1705 31.1776 23.1705ZM36.7628 26.2727V14.2727H39.1491V15.7386H39.2571C39.3632 15.5038 39.5166 15.2652 39.7173 15.0227C39.9219 14.7765 40.187 14.572 40.5128 14.4091C40.8423 14.2424 41.2514 14.1591 41.7401 14.1591C42.3764 14.1591 42.9635 14.3258 43.5014 14.6591C44.0393 14.9886 44.4692 15.4867 44.7912 16.1534C45.1132 16.8163 45.2741 17.6477 45.2741 18.6477C45.2741 19.6212 45.117 20.4432 44.8026 21.1136C44.492 21.7803 44.0677 22.286 43.5298 22.6307C42.9957 22.9716 42.3973 23.142 41.7344 23.142C41.2647 23.142 40.8651 23.0644 40.5355 22.9091C40.2098 22.7538 39.9427 22.5587 39.7344 22.3239C39.526 22.0852 39.367 21.8447 39.2571 21.6023H39.1832V26.2727H36.7628ZM39.1321 18.6364C39.1321 19.1553 39.2041 19.608 39.348 19.9943C39.492 20.3807 39.7003 20.6818 39.973 20.8977C40.2457 21.1098 40.5772 21.2159 40.9673 21.2159C41.3613 21.2159 41.6946 21.108 41.9673 20.892C42.2401 20.6723 42.4465 20.3693 42.5866 19.983C42.7306 19.5928 42.8026 19.1439 42.8026 18.6364C42.8026 18.1326 42.7325 17.6894 42.5923 17.3068C42.4522 16.9242 42.2457 16.625 41.973 16.4091C41.7003 16.1932 41.3651 16.0852 40.9673 16.0852C40.5734 16.0852 40.2401 16.1894 39.9673 16.3977C39.6984 16.6061 39.492 16.9015 39.348 17.2841C39.2041 17.6667 39.1321 18.1174 39.1321 18.6364ZM50.8651 23.1705C49.9673 23.1705 49.1946 22.9886 48.5469 22.625C47.9029 22.2576 47.4067 21.7386 47.0582 21.0682C46.7098 20.3939 46.5355 19.5966 46.5355 18.6761C46.5355 17.7784 46.7098 16.9905 47.0582 16.3125C47.4067 15.6345 47.8973 15.1061 48.5298 14.7273C49.1662 14.3485 49.9124 14.1591 50.7685 14.1591C51.3442 14.1591 51.8802 14.2519 52.3764 14.4375C52.8764 14.6193 53.312 14.8939 53.6832 15.2614C54.0582 15.6288 54.3499 16.0909 54.5582 16.6477C54.7666 17.2008 54.8707 17.8485 54.8707 18.5909V19.2557H47.5014V17.7557H52.5923C52.5923 17.4072 52.5166 17.0985 52.3651 16.8295C52.2135 16.5606 52.0033 16.3504 51.7344 16.1989C51.4692 16.0436 51.1605 15.9659 50.8082 15.9659C50.4408 15.9659 50.1151 16.0511 49.831 16.2216C49.5507 16.3883 49.331 16.6136 49.1719 16.8977C49.0128 17.178 48.9313 17.4905 48.9276 17.8352V19.2614C48.9276 19.6932 49.0071 20.0663 49.1662 20.3807C49.3291 20.6951 49.5582 20.9375 49.8537 21.108C50.1491 21.2784 50.4995 21.3636 50.9048 21.3636C51.1738 21.3636 51.42 21.3258 51.6435 21.25C51.867 21.1742 52.0582 21.0606 52.2173 20.9091C52.3764 20.7576 52.4976 20.572 52.581 20.3523L54.8196 20.5C54.706 21.0379 54.473 21.5076 54.1207 21.9091C53.7723 22.3068 53.3215 22.6174 52.7685 22.8409C52.2192 23.0606 51.5848 23.1705 50.8651 23.1705ZM55.777 16.1761V14.2727H63.6861V16.1761H60.8736V23H58.5668V16.1761H55.777ZM65.1534 23V14.2727H68.875C69.9508 14.2727 70.8011 14.4773 71.4261 14.8864C72.0511 15.2955 72.3636 15.8769 72.3636 16.6307C72.3636 17.1042 72.1875 17.4981 71.8352 17.8125C71.483 18.1269 70.9943 18.339 70.3693 18.4489C70.892 18.4867 71.3371 18.6061 71.7045 18.8068C72.0758 19.0038 72.358 19.2595 72.5511 19.5739C72.7481 19.8883 72.8466 20.2367 72.8466 20.6193C72.8466 21.1155 72.714 21.5417 72.4489 21.8977C72.1875 22.2538 71.803 22.5265 71.2955 22.7159C70.7917 22.9053 70.1761 23 69.4489 23H65.1534ZM67.4091 21.1875H69.4489C69.786 21.1875 70.0492 21.108 70.2386 20.9489C70.4318 20.786 70.5284 20.5644 70.5284 20.2841C70.5284 19.9735 70.4318 19.7292 70.2386 19.5511C70.0492 19.3731 69.786 19.2841 69.4489 19.2841H67.4091V21.1875ZM67.4091 17.8636H68.9261C69.1686 17.8636 69.375 17.8295 69.5455 17.7614C69.7197 17.6894 69.8523 17.5871 69.9432 17.4545C70.0379 17.322 70.0852 17.1648 70.0852 16.983C70.0852 16.714 69.9773 16.5038 69.7614 16.3523C69.5455 16.2008 69.25 16.125 68.875 16.125H67.4091V17.8636ZM78.3153 23.1705C77.4328 23.1705 76.6695 22.983 76.0256 22.608C75.3854 22.2292 74.8911 21.7027 74.5426 21.0284C74.1941 20.3504 74.0199 19.5644 74.0199 18.6705C74.0199 17.7689 74.1941 16.9811 74.5426 16.3068C74.8911 15.6288 75.3854 15.1023 76.0256 14.7273C76.6695 14.3485 77.4328 14.1591 78.3153 14.1591C79.1979 14.1591 79.9593 14.3485 80.5994 14.7273C81.2434 15.1023 81.7396 15.6288 82.0881 16.3068C82.4366 16.9811 82.6108 17.7689 82.6108 18.6705C82.6108 19.5644 82.4366 20.3504 82.0881 21.0284C81.7396 21.7027 81.2434 22.2292 80.5994 22.608C79.9593 22.983 79.1979 23.1705 78.3153 23.1705ZM78.3267 21.2955C78.7282 21.2955 79.0634 21.1818 79.3324 20.9545C79.6013 20.7235 79.804 20.4091 79.9403 20.0114C80.0805 19.6136 80.1506 19.161 80.1506 18.6534C80.1506 18.1458 80.0805 17.6932 79.9403 17.2955C79.804 16.8977 79.6013 16.5833 79.3324 16.3523C79.0634 16.1212 78.7282 16.0057 78.3267 16.0057C77.9214 16.0057 77.5805 16.1212 77.304 16.3523C77.0313 16.5833 76.8248 16.8977 76.6847 17.2955C76.5483 17.6932 76.4801 18.1458 76.4801 18.6534C76.4801 19.161 76.5483 19.6136 76.6847 20.0114C76.8248 20.4091 77.0313 20.7235 77.304 20.9545C77.5805 21.1818 77.9214 21.2955 78.3267 21.2955ZM84.1847 26.2727V14.2727H86.571V15.7386H86.679C86.785 15.5038 86.9384 15.2652 87.1392 15.0227C87.3438 14.7765 87.6089 14.572 87.9347 14.4091C88.2642 14.2424 88.6733 14.1591 89.1619 14.1591C89.7983 14.1591 90.3854 14.3258 90.9233 14.6591C91.4612 14.9886 91.8911 15.4867 92.2131 16.1534C92.535 16.8163 92.696 17.6477 92.696 18.6477C92.696 19.6212 92.5388 20.4432 92.2244 21.1136C91.9138 21.7803 91.4896 22.286 90.9517 22.6307C90.4176 22.9716 89.8191 23.142 89.1562 23.142C88.6866 23.142 88.2869 23.0644 87.9574 22.9091C87.6316 22.7538 87.3646 22.5587 87.1562 22.3239C86.9479 22.0852 86.7888 21.8447 86.679 21.6023H86.6051V26.2727H84.1847ZM86.554 18.6364C86.554 19.1553 86.6259 19.608 86.7699 19.9943C86.9138 20.3807 87.1222 20.6818 87.3949 20.8977C87.6676 21.1098 87.9991 21.2159 88.3892 21.2159C88.7831 21.2159 89.1165 21.108 89.3892 20.892C89.6619 20.6723 89.8684 20.3693 90.0085 19.983C90.1525 19.5928 90.2244 19.1439 90.2244 18.6364C90.2244 18.1326 90.1544 17.6894 90.0142 17.3068C89.8741 16.9242 89.6676 16.625 89.3949 16.4091C89.1222 16.1932 88.7869 16.0852 88.3892 16.0852C87.9953 16.0852 87.6619 16.1894 87.3892 16.3977C87.1203 16.6061 86.9138 16.9015 86.7699 17.2841C86.6259 17.6667 86.554 18.1174 86.554 18.6364ZM99.1335 17.7216V19.642H94.4006V17.7216H99.1335ZM96.2699 14.2727V23H93.8551V14.2727H96.2699ZM101.747 23.1705C100.884 23.1705 100.137 22.9773 99.5085 22.5909C98.8797 22.2045 98.3949 21.6705 98.054 20.9886C97.7169 20.3068 97.5483 19.5246 97.5483 18.642C97.5483 17.7595 97.7169 16.9811 98.054 16.3068C98.3949 15.6326 98.8797 15.1061 99.5085 14.7273C100.137 14.3485 100.884 14.1591 101.747 14.1591C102.615 14.1591 103.361 14.3485 103.986 14.7273C104.615 15.1061 105.098 15.6326 105.435 16.3068C105.776 16.9811 105.946 17.7595 105.946 18.642C105.946 19.5246 105.776 20.3068 105.435 20.9886C105.098 21.6705 104.615 22.2045 103.986 22.5909C103.361 22.9773 102.615 23.1705 101.747 23.1705ZM101.747 21.2159C102.198 21.2159 102.562 21.1061 102.838 20.8864C103.115 20.6629 103.317 20.358 103.446 19.9716C103.575 19.5814 103.639 19.1383 103.639 18.642C103.639 18.1458 103.575 17.7064 103.446 17.3239C103.317 16.9375 103.115 16.6345 102.838 16.4148C102.562 16.1951 102.198 16.0852 101.747 16.0852C101.3 16.0852 100.937 16.1951 100.656 16.4148C100.376 16.6307 100.17 16.9299 100.037 17.3125C99.9081 17.6951 99.8438 18.1383 99.8438 18.642C99.8438 19.142 99.9081 19.5852 100.037 19.9716C100.17 20.358 100.376 20.6629 100.656 20.8864C100.937 21.1061 101.3 21.2159 101.747 21.2159ZM109.903 19.8068L113.045 14.2727H115.432V23H113.125V17.4489L109.994 23H107.591V14.2727H109.903V19.8068ZM112.631 11.2273H114.318C114.314 11.9167 114.059 12.4716 113.551 12.892C113.047 13.3125 112.366 13.5227 111.506 13.5227C110.642 13.5227 109.958 13.3125 109.455 12.892C108.951 12.4716 108.699 11.9167 108.699 11.2273H110.375C110.371 11.4886 110.455 11.7235 110.625 11.9318C110.799 12.1402 111.093 12.2443 111.506 12.2443C111.907 12.2443 112.195 12.142 112.369 11.9375C112.544 11.733 112.631 11.4962 112.631 11.2273ZM121.075 23V14.2727H123.496V17.6591H124.178L126.553 14.2727H129.393L126.308 18.6023L129.428 23H126.553L124.399 19.9034H123.496V23H121.075ZM130.45 26.2727V14.2727H132.837V15.7386H132.945C133.051 15.5038 133.204 15.2652 133.405 15.0227C133.609 14.7765 133.875 14.572 134.2 14.4091C134.53 14.2424 134.939 14.1591 135.428 14.1591C136.064 14.1591 136.651 14.3258 137.189 14.6591C137.727 14.9886 138.157 15.4867 138.479 16.1534C138.801 16.8163 138.962 17.6477 138.962 18.6477C138.962 19.6212 138.804 20.4432 138.49 21.1136C138.179 21.7803 137.755 22.286 137.217 22.6307C136.683 22.9716 136.085 23.142 135.422 23.142C134.952 23.142 134.553 23.0644 134.223 22.9091C133.897 22.7538 133.63 22.5587 133.422 22.3239C133.214 22.0852 133.054 21.8447 132.945 21.6023H132.871V26.2727H130.45ZM132.82 18.6364C132.82 19.1553 132.892 19.608 133.036 19.9943C133.179 20.3807 133.388 20.6818 133.661 20.8977C133.933 21.1098 134.265 21.2159 134.655 21.2159C135.049 21.2159 135.382 21.108 135.655 20.892C135.928 20.6723 136.134 20.3693 136.274 19.983C136.418 19.5928 136.49 19.1439 136.49 18.6364C136.49 18.1326 136.42 17.6894 136.28 17.3068C136.14 16.9242 135.933 16.625 135.661 16.4091C135.388 16.1932 135.053 16.0852 134.655 16.0852C134.261 16.0852 133.928 16.1894 133.655 16.3977C133.386 16.6061 133.179 16.9015 133.036 17.2841C132.892 17.6667 132.82 18.1174 132.82 18.6364ZM143.064 23.1648C142.507 23.1648 142.011 23.0682 141.575 22.875C141.14 22.678 140.795 22.3883 140.541 22.0057C140.291 21.6193 140.166 21.1383 140.166 20.5625C140.166 20.0777 140.255 19.6705 140.433 19.3409C140.611 19.0114 140.854 18.7462 141.161 18.5455C141.467 18.3447 141.816 18.1932 142.206 18.0909C142.6 17.9886 143.013 17.9167 143.445 17.875C143.952 17.822 144.361 17.7727 144.672 17.7273C144.982 17.678 145.208 17.6061 145.348 17.5114C145.488 17.4167 145.558 17.2765 145.558 17.0909V17.0568C145.558 16.697 145.445 16.4186 145.217 16.2216C144.994 16.0246 144.676 15.9261 144.263 15.9261C143.827 15.9261 143.481 16.0227 143.223 16.2159C142.965 16.4053 142.795 16.6439 142.712 16.9318L140.473 16.75C140.587 16.2197 140.81 15.7614 141.143 15.375C141.477 14.9848 141.907 14.6856 142.433 14.4773C142.964 14.2652 143.577 14.1591 144.274 14.1591C144.759 14.1591 145.223 14.2159 145.666 14.3295C146.113 14.4432 146.509 14.6193 146.854 14.858C147.202 15.0966 147.477 15.4034 147.678 15.7784C147.878 16.1496 147.979 16.5947 147.979 17.1136V23H145.683V21.7898H145.615C145.475 22.0625 145.287 22.303 145.053 22.5114C144.818 22.7159 144.536 22.8769 144.206 22.9943C143.876 23.108 143.496 23.1648 143.064 23.1648ZM143.757 21.4943C144.113 21.4943 144.428 21.4242 144.7 21.2841C144.973 21.1402 145.187 20.947 145.342 20.7045C145.498 20.4621 145.575 20.1875 145.575 19.8807V18.9545C145.5 19.0038 145.395 19.0492 145.263 19.0909C145.134 19.1288 144.988 19.1648 144.825 19.1989C144.662 19.2292 144.5 19.2576 144.337 19.2841C144.174 19.3068 144.026 19.3277 143.893 19.3466C143.609 19.3883 143.361 19.4545 143.149 19.5455C142.937 19.6364 142.772 19.7595 142.655 19.9148C142.537 20.0663 142.479 20.2557 142.479 20.483C142.479 20.8125 142.598 21.0644 142.837 21.2386C143.079 21.4091 143.386 21.4943 143.757 21.4943ZM153.8 23.1705C152.906 23.1705 152.137 22.9811 151.493 22.6023C150.853 22.2197 150.36 21.6894 150.016 21.0114C149.675 20.3333 149.504 19.553 149.504 18.6705C149.504 17.7765 149.677 16.9924 150.021 16.3182C150.37 15.6402 150.864 15.1117 151.504 14.733C152.144 14.3504 152.906 14.1591 153.788 14.1591C154.55 14.1591 155.216 14.2973 155.788 14.5739C156.36 14.8504 156.813 15.2386 157.146 15.7386C157.48 16.2386 157.663 16.8258 157.697 17.5H155.413C155.349 17.0644 155.179 16.714 154.902 16.4489C154.629 16.1799 154.271 16.0455 153.828 16.0455C153.453 16.0455 153.125 16.1477 152.845 16.3523C152.569 16.553 152.353 16.8466 152.197 17.233C152.042 17.6193 151.964 18.0871 151.964 18.6364C151.964 19.1932 152.04 19.6667 152.192 20.0568C152.347 20.447 152.565 20.7443 152.845 20.9489C153.125 21.1534 153.453 21.2557 153.828 21.2557C154.105 21.2557 154.353 21.1989 154.572 21.0852C154.796 20.9716 154.98 20.8068 155.124 20.5909C155.271 20.3712 155.368 20.108 155.413 19.8011H157.697C157.66 20.4678 157.478 21.0549 157.152 21.5625C156.83 22.0663 156.385 22.4602 155.817 22.7443C155.249 23.0284 154.576 23.1705 153.8 23.1705ZM160.741 26.2727C160.435 26.2727 160.147 26.2481 159.878 26.1989C159.613 26.1534 159.393 26.0947 159.219 26.0227L159.764 24.2159C160.048 24.303 160.304 24.3504 160.531 24.358C160.762 24.3655 160.961 24.3125 161.128 24.1989C161.298 24.0852 161.437 23.892 161.543 23.6193L161.685 23.25L158.554 14.2727H161.099L162.906 20.6818H162.997L164.821 14.2727H167.384L163.991 23.9432C163.829 24.4129 163.607 24.822 163.327 25.1705C163.05 25.5227 162.7 25.7936 162.276 25.983C161.851 26.1761 161.34 26.2727 160.741 26.2727ZM173.82 26.2727C173.513 26.2727 173.225 26.2481 172.956 26.1989C172.691 26.1534 172.471 26.0947 172.297 26.0227L172.842 24.2159C173.126 24.303 173.382 24.3504 173.609 24.358C173.84 24.3655 174.039 24.3125 174.206 24.1989C174.376 24.0852 174.515 23.892 174.621 23.6193L174.763 23.25L171.632 14.2727H174.178L175.984 20.6818H176.075L177.899 14.2727H180.462L177.07 23.9432C176.907 24.4129 176.685 24.822 176.405 25.1705C176.128 25.5227 175.778 25.7936 175.354 25.983C174.929 26.1761 174.418 26.2727 173.82 26.2727ZM189.347 23.1705C188.453 23.1705 187.684 22.9811 187.04 22.6023C186.4 22.2197 185.907 21.6894 185.562 21.0114C185.222 20.3333 185.051 19.553 185.051 18.6705C185.051 17.7765 185.223 16.9924 185.568 16.3182C185.917 15.6402 186.411 15.1117 187.051 14.733C187.691 14.3504 188.453 14.1591 189.335 14.1591C190.097 14.1591 190.763 14.2973 191.335 14.5739C191.907 14.8504 192.36 15.2386 192.693 15.7386C193.027 16.2386 193.21 16.8258 193.244 17.5H190.96C190.896 17.0644 190.725 16.714 190.449 16.4489C190.176 16.1799 189.818 16.0455 189.375 16.0455C189 16.0455 188.672 16.1477 188.392 16.3523C188.116 16.553 187.9 16.8466 187.744 17.233C187.589 17.6193 187.511 18.0871 187.511 18.6364C187.511 19.1932 187.587 19.6667 187.739 20.0568C187.894 20.447 188.112 20.7443 188.392 20.9489C188.672 21.1534 189 21.2557 189.375 21.2557C189.652 21.2557 189.9 21.1989 190.119 21.0852C190.343 20.9716 190.527 20.8068 190.67 20.5909C190.818 20.3712 190.915 20.108 190.96 19.8011H193.244C193.206 20.4678 193.025 21.0549 192.699 21.5625C192.377 22.0663 191.932 22.4602 191.364 22.7443C190.795 23.0284 190.123 23.1705 189.347 23.1705ZM194.794 23V14.2727H202.425V23H200.112V16.1761H197.078V23H194.794ZM204.357 26.2727V14.2727H206.743V15.7386H206.851C206.957 15.5038 207.11 15.2652 207.311 15.0227C207.516 14.7765 207.781 14.572 208.107 14.4091C208.436 14.2424 208.845 14.1591 209.334 14.1591C209.97 14.1591 210.557 14.3258 211.095 14.6591C211.633 14.9886 212.063 15.4867 212.385 16.1534C212.707 16.8163 212.868 17.6477 212.868 18.6477C212.868 19.6212 212.711 20.4432 212.396 21.1136C212.086 21.7803 211.661 22.286 211.124 22.6307C210.589 22.9716 209.991 23.142 209.328 23.142C208.858 23.142 208.459 23.0644 208.129 22.9091C207.804 22.7538 207.536 22.5587 207.328 22.3239C207.12 22.0852 206.961 21.8447 206.851 21.6023H206.777V26.2727H204.357ZM206.726 18.6364C206.726 19.1553 206.798 19.608 206.942 19.9943C207.086 20.3807 207.294 20.6818 207.567 20.8977C207.839 21.1098 208.171 21.2159 208.561 21.2159C208.955 21.2159 209.288 21.108 209.561 20.892C209.834 20.6723 210.04 20.3693 210.18 19.983C210.324 19.5928 210.396 19.1439 210.396 18.6364C210.396 18.1326 210.326 17.6894 210.186 17.3068C210.046 16.9242 209.839 16.625 209.567 16.4091C209.294 16.1932 208.959 16.0852 208.561 16.0852C208.167 16.0852 207.834 16.1894 207.561 16.3977C207.292 16.6061 207.086 16.9015 206.942 17.2841C206.798 17.6667 206.726 18.1174 206.726 18.6364ZM216.97 23.1648C216.413 23.1648 215.917 23.0682 215.482 22.875C215.046 22.678 214.701 22.3883 214.447 22.0057C214.197 21.6193 214.072 21.1383 214.072 20.5625C214.072 20.0777 214.161 19.6705 214.339 19.3409C214.518 19.0114 214.76 18.7462 215.067 18.5455C215.374 18.3447 215.722 18.1932 216.112 18.0909C216.506 17.9886 216.919 17.9167 217.351 17.875C217.858 17.822 218.268 17.7727 218.578 17.7273C218.889 17.678 219.114 17.6061 219.254 17.5114C219.394 17.4167 219.464 17.2765 219.464 17.0909V17.0568C219.464 16.697 219.351 16.4186 219.124 16.2216C218.9 16.0246 218.582 15.9261 218.169 15.9261C217.733 15.9261 217.387 16.0227 217.129 16.2159C216.872 16.4053 216.701 16.6439 216.618 16.9318L214.379 16.75C214.493 16.2197 214.716 15.7614 215.05 15.375C215.383 14.9848 215.813 14.6856 216.339 14.4773C216.87 14.2652 217.483 14.1591 218.18 14.1591C218.665 14.1591 219.129 14.2159 219.572 14.3295C220.019 14.4432 220.415 14.6193 220.76 14.858C221.108 15.0966 221.383 15.4034 221.584 15.7784C221.785 16.1496 221.885 16.5947 221.885 17.1136V23H219.589V21.7898H219.521C219.381 22.0625 219.194 22.303 218.959 22.5114C218.724 22.7159 218.442 22.8769 218.112 22.9943C217.783 23.108 217.402 23.1648 216.97 23.1648ZM217.663 21.4943C218.019 21.4943 218.334 21.4242 218.607 21.2841C218.879 21.1402 219.093 20.947 219.249 20.7045C219.404 20.4621 219.482 20.1875 219.482 19.8807V18.9545C219.406 19.0038 219.302 19.0492 219.169 19.0909C219.04 19.1288 218.894 19.1648 218.732 19.1989C218.569 19.2292 218.406 19.2576 218.243 19.2841C218.08 19.3068 217.932 19.3277 217.8 19.3466C217.516 19.3883 217.268 19.4545 217.055 19.5455C216.843 19.6364 216.679 19.7595 216.561 19.9148C216.444 20.0663 216.385 20.2557 216.385 20.483C216.385 20.8125 216.504 21.0644 216.743 21.2386C216.985 21.4091 217.292 21.4943 217.663 21.4943ZM223.763 23V14.2727H227.484C228.56 14.2727 229.411 14.4773 230.036 14.8864C230.661 15.2955 230.973 15.8769 230.973 16.6307C230.973 17.1042 230.797 17.4981 230.445 17.8125C230.092 18.1269 229.604 18.339 228.979 18.4489C229.501 18.4867 229.946 18.6061 230.314 18.8068C230.685 19.0038 230.967 19.2595 231.161 19.5739C231.357 19.8883 231.456 20.2367 231.456 20.6193C231.456 21.1155 231.323 21.5417 231.058 21.8977C230.797 22.2538 230.412 22.5265 229.905 22.7159C229.401 22.9053 228.786 23 228.058 23H223.763ZM226.018 21.1875H228.058C228.395 21.1875 228.659 21.108 228.848 20.9489C229.041 20.786 229.138 20.5644 229.138 20.2841C229.138 19.9735 229.041 19.7292 228.848 19.5511C228.659 19.3731 228.395 19.2841 228.058 19.2841H226.018V21.1875ZM226.018 17.8636H227.536C227.778 17.8636 227.984 17.8295 228.155 17.7614C228.329 17.6894 228.462 17.5871 228.553 17.4545C228.647 17.322 228.695 17.1648 228.695 16.983C228.695 16.714 228.587 16.5038 228.371 16.3523C228.155 16.2008 227.859 16.125 227.484 16.125H226.018V17.8636ZM232.413 23L235.464 18.4602L232.43 14.2727H235.192L237.459 17.6875H237.834V14.2727H240.254V17.6875H240.618L242.885 14.2727H245.646L242.618 18.4602L245.663 23H242.839L240.595 19.5909H240.254V23H237.834V19.5909H237.493L235.237 23H232.413ZM253.102 17.6705V19.5739H248.545V17.6705H253.102ZM249.341 14.2727V23H247.028V14.2727H249.341ZM254.619 14.2727V23H252.324V14.2727H254.619ZM260.849 17.9545V19.3693H257.673V17.9545H260.849ZM264.162 17.0909L261.923 17.4716C261.813 17.0549 261.63 16.7197 261.372 16.4659C261.118 16.2121 260.751 16.0852 260.27 16.0852C259.838 16.0852 259.482 16.1932 259.202 16.4091C258.921 16.6212 258.713 16.9186 258.577 17.3011C258.444 17.6837 258.378 18.1288 258.378 18.6364C258.378 19.1477 258.444 19.5966 258.577 19.983C258.709 20.3693 258.916 20.6723 259.196 20.892C259.476 21.108 259.834 21.2159 260.27 21.2159C260.573 21.2159 260.83 21.1629 261.043 21.0568C261.259 20.947 261.435 20.7992 261.571 20.6136C261.707 20.4242 261.812 20.2121 261.884 19.9773L264.134 20.3466C264.009 20.911 263.768 21.4053 263.412 21.8295C263.06 22.2538 262.615 22.5833 262.077 22.8182C261.543 23.053 260.94 23.1705 260.27 23.1705C259.399 23.1705 258.649 22.9773 258.02 22.5909C257.395 22.2008 256.912 21.6648 256.571 20.983C256.234 20.2973 256.065 19.5152 256.065 18.6364C256.065 17.7614 256.234 16.9867 256.571 16.3125C256.912 15.6383 257.397 15.1117 258.026 14.733C258.654 14.3504 259.402 14.1591 260.27 14.1591C260.952 14.1591 261.563 14.2803 262.105 14.5227C262.651 14.7614 263.099 15.1004 263.452 15.5398C263.808 15.9792 264.045 16.4962 264.162 17.0909Z" fill="#4F00B4"/>
</g>
<defs>
<filter id="filter0_d_2008_228" x="0" y="0" width="538.37" height="139.807" filterUnits="userSpaceOnUse" color-interpolation-filters="sRGB">
<feFlood flood-opacity="0" result="BackgroundImageFix"/>
<feColorMatrix in="SourceAlpha" type="matrix" values="0 0 0 0 0 0 0 0 0 0 0 0 0 0 0 0 0 0 127 0" result="hardAlpha"/>
<feOffset dy="4"/>
<feGaussianBlur stdDeviation="2"/>
<feComposite in2="hardAlpha" operator="out"/>
<feColorMatrix type="matrix" values="0 0 0 0 0 0 0 0 0 0 0 0 0 0 0 0 0 0 0.25 0"/>
<feBlend mode="normal" in2="BackgroundImageFix" result="effect1_dropShadow_2008_228"/>
<feBlend mode="normal" in="SourceGraphic" in2="effect1_dropShadow_2008_228" result="shape"/>
</filter>
</defs>
</svg>
