<svg width="552" height="136" viewBox="0 0 552 136" fill="none" xmlns="http://www.w3.org/2000/svg">
<path d="M0 0V34H401.105L415 19.9633V0H0Z" fill="white"/>
<path d="M11.0114 23V11.3636H15.6023C16.4848 11.3636 17.2367 11.5322 17.858 11.8693C18.4792 12.2027 18.9527 12.6667 19.2784 13.2614C19.608 13.8523 19.7727 14.5341 19.7727 15.3068C19.7727 16.0795 19.6061 16.7614 19.2727 17.3523C18.9394 17.9432 18.4564 18.4034 17.8239 18.733C17.1951 19.0625 16.4337 19.2273 15.5398 19.2273H12.6136V17.2557H15.142C15.6155 17.2557 16.0057 17.1742 16.3125 17.0114C16.6231 16.8447 16.8542 16.6155 17.0057 16.3239C17.161 16.0284 17.2386 15.6894 17.2386 15.3068C17.2386 14.9205 17.161 14.5833 17.0057 14.2955C16.8542 14.0038 16.6231 13.7784 16.3125 13.6193C16.0019 13.4564 15.608 13.375 15.1307 13.375H13.4716V23H11.0114ZM23.5795 23.1648C23.0227 23.1648 22.5265 23.0682 22.0909 22.875C21.6553 22.678 21.3106 22.3883 21.0568 22.0057C20.8068 21.6193 20.6818 21.1383 20.6818 20.5625C20.6818 20.0777 20.7708 19.6705 20.9489 19.3409C21.1269 19.0114 21.3693 18.7462 21.6761 18.5455C21.983 18.3447 22.3314 18.1932 22.7216 18.0909C23.1155 17.9886 23.5284 17.9167 23.9602 17.875C24.4678 17.822 24.8769 17.7727 25.1875 17.7273C25.4981 17.678 25.7235 17.6061 25.8636 17.5114C26.0038 17.4167 26.0739 17.2765 26.0739 17.0909V17.0568C26.0739 16.697 25.9602 16.4186 25.733 16.2216C25.5095 16.0246 25.1913 15.9261 24.7784 15.9261C24.3428 15.9261 23.9962 16.0227 23.7386 16.2159C23.4811 16.4053 23.3106 16.6439 23.2273 16.9318L20.9886 16.75C21.1023 16.2197 21.3258 15.7614 21.6591 15.375C21.9924 14.9848 22.4223 14.6856 22.9489 14.4773C23.4792 14.2652 24.0928 14.1591 24.7898 14.1591C25.2746 14.1591 25.7386 14.2159 26.1818 14.3295C26.6288 14.4432 27.0246 14.6193 27.3693 14.858C27.7178 15.0966 27.9924 15.4034 28.1932 15.7784C28.3939 16.1496 28.4943 16.5947 28.4943 17.1136V23H26.1989V21.7898H26.1307C25.9905 22.0625 25.803 22.303 25.5682 22.5114C25.3333 22.7159 25.0511 22.8769 24.7216 22.9943C24.392 23.108 24.0114 23.1648 23.5795 23.1648ZM24.2727 21.4943C24.6288 21.4943 24.9432 21.4242 25.2159 21.2841C25.4886 21.1402 25.7027 20.947 25.858 20.7045C26.0133 20.4621 26.0909 20.1875 26.0909 19.8807V18.9545C26.0152 19.0038 25.911 19.0492 25.7784 19.0909C25.6496 19.1288 25.5038 19.1648 25.3409 19.1989C25.178 19.2292 25.0152 19.2576 24.8523 19.2841C24.6894 19.3068 24.5417 19.3277 24.4091 19.3466C24.125 19.3883 23.8769 19.4545 23.6648 19.5455C23.4527 19.6364 23.2879 19.7595 23.1705 19.9148C23.053 20.0663 22.9943 20.2557 22.9943 20.483C22.9943 20.8125 23.1136 21.0644 23.3523 21.2386C23.5947 21.4091 23.9015 21.4943 24.2727 21.4943ZM32.3949 14.2727L33.9972 17.3239L35.6392 14.2727H38.1222L35.5938 18.6364L38.1903 23H35.7188L33.9972 19.983L32.304 23H29.804L32.3949 18.6364L29.8949 14.2727H32.3949ZM41.054 26.2727C40.7472 26.2727 40.4593 26.2481 40.1903 26.1989C39.9252 26.1534 39.7055 26.0947 39.5312 26.0227L40.0767 24.2159C40.3608 24.303 40.6165 24.3504 40.8438 24.358C41.0748 24.3655 41.2737 24.3125 41.4403 24.1989C41.6108 24.0852 41.7491 23.892 41.8551 23.6193L41.9972 23.25L38.8665 14.2727H41.4119L43.2188 20.6818H43.3097L45.1335 14.2727H47.696L44.304 23.9432C44.1411 24.4129 43.9195 24.822 43.6392 25.1705C43.3627 25.5227 43.0123 25.7936 42.5881 25.983C42.1638 26.1761 41.6525 26.2727 41.054 26.2727ZM51.2472 19.8068L54.3892 14.2727H56.7756V23H54.4688V17.4489L51.3381 23H48.9347V14.2727H51.2472V19.8068ZM53.9744 11.2273H55.6619C55.6581 11.9167 55.4025 12.4716 54.8949 12.892C54.3911 13.3125 53.7093 13.5227 52.8494 13.5227C51.9858 13.5227 51.3021 13.3125 50.7983 12.892C50.2945 12.4716 50.0426 11.9167 50.0426 11.2273H51.7188C51.715 11.4886 51.7983 11.7235 51.9688 11.9318C52.143 12.1402 52.4366 12.2443 52.8494 12.2443C53.2509 12.2443 53.5388 12.142 53.7131 11.9375C53.8873 11.733 53.9744 11.4962 53.9744 11.2273ZM60.1307 23.1477C59.7557 23.1477 59.4337 23.0152 59.1648 22.75C58.8996 22.4811 58.767 22.1591 58.767 21.7841C58.767 21.4129 58.8996 21.0947 59.1648 20.8295C59.4337 20.5644 59.7557 20.4318 60.1307 20.4318C60.4943 20.4318 60.8125 20.5644 61.0852 20.8295C61.358 21.0947 61.4943 21.4129 61.4943 21.7841C61.4943 22.0341 61.4299 22.2633 61.3011 22.4716C61.1761 22.6761 61.0114 22.8409 60.8068 22.9659C60.6023 23.0871 60.3769 23.1477 60.1307 23.1477ZM66.6832 23V11.3636H71.3423C72.1984 11.3636 72.9124 11.4905 73.4844 11.7443C74.0563 11.9981 74.4863 12.3504 74.7741 12.8011C75.062 13.2481 75.206 13.7633 75.206 14.3466C75.206 14.8011 75.1151 15.2008 74.9332 15.5455C74.7514 15.8864 74.5014 16.1667 74.1832 16.3864C73.8688 16.6023 73.509 16.7557 73.1037 16.8466V16.9602C73.5469 16.9792 73.9616 17.1042 74.348 17.3352C74.7382 17.5663 75.0545 17.8902 75.2969 18.3068C75.5393 18.7197 75.6605 19.2121 75.6605 19.7841C75.6605 20.4015 75.5071 20.9527 75.2003 21.4375C74.8973 21.9186 74.4484 22.2992 73.8537 22.5795C73.259 22.8598 72.526 23 71.6548 23H66.6832ZM69.1435 20.9886H71.1491C71.8348 20.9886 72.3348 20.858 72.6491 20.5966C72.9635 20.3314 73.1207 19.9792 73.1207 19.5398C73.1207 19.2178 73.0431 18.9337 72.8878 18.6875C72.7325 18.4413 72.5109 18.2481 72.223 18.108C71.9389 17.9678 71.5999 17.8977 71.206 17.8977H69.1435V20.9886ZM69.1435 16.233H70.9673C71.3045 16.233 71.6037 16.1742 71.8651 16.0568C72.1302 15.9356 72.3385 15.7652 72.4901 15.5455C72.6454 15.3258 72.723 15.0625 72.723 14.7557C72.723 14.3352 72.5734 13.9962 72.2741 13.7386C71.9787 13.4811 71.5582 13.3523 71.0128 13.3523H69.1435V16.233ZM79.5284 19.8068L82.6705 14.2727H85.0568V23H82.75V17.4489L79.6193 23H77.2159V14.2727H79.5284V19.8068ZM93.071 17.6705V19.5739H88.5142V17.6705H93.071ZM89.3097 14.2727V23H86.9972V14.2727H89.3097ZM94.5881 14.2727V23H92.2926V14.2727H94.5881ZM98.9545 23.1648C98.3977 23.1648 97.9015 23.0682 97.4659 22.875C97.0303 22.678 96.6856 22.3883 96.4318 22.0057C96.1818 21.6193 96.0568 21.1383 96.0568 20.5625C96.0568 20.0777 96.1458 19.6705 96.3239 19.3409C96.5019 19.0114 96.7443 18.7462 97.0511 18.5455C97.358 18.3447 97.7064 18.1932 98.0966 18.0909C98.4905 17.9886 98.9034 17.9167 99.3352 17.875C99.8428 17.822 100.252 17.7727 100.562 17.7273C100.873 17.678 101.098 17.6061 101.239 17.5114C101.379 17.4167 101.449 17.2765 101.449 17.0909V17.0568C101.449 16.697 101.335 16.4186 101.108 16.2216C100.884 16.0246 100.566 15.9261 100.153 15.9261C99.7178 15.9261 99.3712 16.0227 99.1136 16.2159C98.8561 16.4053 98.6856 16.6439 98.6023 16.9318L96.3636 16.75C96.4773 16.2197 96.7008 15.7614 97.0341 15.375C97.3674 14.9848 97.7973 14.6856 98.3239 14.4773C98.8542 14.2652 99.4678 14.1591 100.165 14.1591C100.65 14.1591 101.114 14.2159 101.557 14.3295C102.004 14.4432 102.4 14.6193 102.744 14.858C103.093 15.0966 103.367 15.4034 103.568 15.7784C103.769 16.1496 103.869 16.5947 103.869 17.1136V23H101.574V21.7898H101.506C101.366 22.0625 101.178 22.303 100.943 22.5114C100.708 22.7159 100.426 22.8769 100.097 22.9943C99.767 23.108 99.3864 23.1648 98.9545 23.1648ZM99.6477 21.4943C100.004 21.4943 100.318 21.4242 100.591 21.2841C100.864 21.1402 101.078 20.947 101.233 20.7045C101.388 20.4621 101.466 20.1875 101.466 19.8807V18.9545C101.39 19.0038 101.286 19.0492 101.153 19.0909C101.025 19.1288 100.879 19.1648 100.716 19.1989C100.553 19.2292 100.39 19.2576 100.227 19.2841C100.064 19.3068 99.9167 19.3277 99.7841 19.3466C99.5 19.3883 99.2519 19.4545 99.0398 19.5455C98.8277 19.6364 98.6629 19.7595 98.5455 19.9148C98.428 20.0663 98.3693 20.2557 98.3693 20.483C98.3693 20.8125 98.4886 21.0644 98.7273 21.2386C98.9697 21.4091 99.2765 21.4943 99.6477 21.4943ZM107.77 14.2727L109.372 17.3239L111.014 14.2727H113.497L110.969 18.6364L113.565 23H111.094L109.372 19.983L107.679 23H105.179L107.77 18.6364L105.27 14.2727H107.77ZM118.565 23.1705C117.683 23.1705 116.92 22.983 116.276 22.608C115.635 22.2292 115.141 21.7027 114.793 21.0284C114.444 20.3504 114.27 19.5644 114.27 18.6705C114.27 17.7689 114.444 16.9811 114.793 16.3068C115.141 15.6288 115.635 15.1023 116.276 14.7273C116.92 14.3485 117.683 14.1591 118.565 14.1591C119.448 14.1591 120.209 14.3485 120.849 14.7273C121.493 15.1023 121.99 15.6288 122.338 16.3068C122.687 16.9811 122.861 17.7689 122.861 18.6705C122.861 19.5644 122.687 20.3504 122.338 21.0284C121.99 21.7027 121.493 22.2292 120.849 22.608C120.209 22.983 119.448 23.1705 118.565 23.1705ZM118.577 21.2955C118.978 21.2955 119.313 21.1818 119.582 20.9545C119.851 20.7235 120.054 20.4091 120.19 20.0114C120.33 19.6136 120.401 19.161 120.401 18.6534C120.401 18.1458 120.33 17.6932 120.19 17.2955C120.054 16.8977 119.851 16.5833 119.582 16.3523C119.313 16.1212 118.978 16.0057 118.577 16.0057C118.171 16.0057 117.83 16.1212 117.554 16.3523C117.281 16.5833 117.075 16.8977 116.935 17.2955C116.798 17.6932 116.73 18.1458 116.73 18.6534C116.73 19.161 116.798 19.6136 116.935 20.0114C117.075 20.4091 117.281 20.7235 117.554 20.9545C117.83 21.1818 118.171 21.2955 118.577 21.2955ZM123.753 25.5568V21.0795H124.423C124.616 20.9583 124.772 20.7652 124.889 20.5C125.01 20.2348 125.109 19.9223 125.185 19.5625C125.264 19.2027 125.325 18.8144 125.366 18.3977C125.412 17.9773 125.452 17.553 125.486 17.125L125.713 14.2727H132.406V21.0795H133.759V25.5568H131.452V23H126.116V25.5568H123.753ZM126.832 21.0795H130.122V16.1364H127.77L127.679 17.125C127.615 18.0568 127.522 18.8485 127.401 19.5C127.279 20.1477 127.09 20.6742 126.832 21.0795ZM136.686 16.9545H139.294C140.449 16.9545 141.351 17.2311 141.999 17.7841C142.646 18.3333 142.97 19.0682 142.97 19.9886C142.97 20.5871 142.824 21.1136 142.533 21.5682C142.241 22.0189 141.821 22.3712 141.271 22.625C140.722 22.875 140.063 23 139.294 23H135.169V14.2727H137.482V21.0966H139.294C139.699 21.0966 140.033 20.9943 140.294 20.7898C140.555 20.5852 140.688 20.3239 140.692 20.0057C140.688 19.6686 140.555 19.3939 140.294 19.1818C140.033 18.9659 139.699 18.858 139.294 18.858H136.686V16.9545ZM145.99 23.1477C145.615 23.1477 145.293 23.0152 145.024 22.75C144.759 22.4811 144.626 22.1591 144.626 21.7841C144.626 21.4129 144.759 21.0947 145.024 20.8295C145.293 20.5644 145.615 20.4318 145.99 20.4318C146.354 20.4318 146.672 20.5644 146.945 20.8295C147.217 21.0947 147.354 21.4129 147.354 21.7841C147.354 22.0341 147.289 22.2633 147.161 22.4716C147.036 22.6761 146.871 22.8409 146.666 22.9659C146.462 23.0871 146.236 23.1477 145.99 23.1477ZM162.81 15.4375H160.321C160.276 15.1155 160.183 14.8295 160.043 14.5795C159.902 14.3258 159.723 14.1098 159.503 13.9318C159.283 13.7538 159.029 13.6174 158.741 13.5227C158.457 13.428 158.149 13.3807 157.815 13.3807C157.213 13.3807 156.688 13.5303 156.241 13.8295C155.795 14.125 155.448 14.5568 155.202 15.125C154.955 15.6894 154.832 16.375 154.832 17.1818C154.832 18.0114 154.955 18.7083 155.202 19.2727C155.452 19.8371 155.8 20.2633 156.247 20.5511C156.694 20.839 157.211 20.983 157.798 20.983C158.128 20.983 158.433 20.9394 158.713 20.8523C158.997 20.7652 159.249 20.6383 159.469 20.4716C159.688 20.3011 159.87 20.0947 160.014 19.8523C160.162 19.6098 160.264 19.3333 160.321 19.0227L162.81 19.0341C162.745 19.5682 162.584 20.0833 162.327 20.5795C162.073 21.072 161.73 21.5133 161.298 21.9034C160.87 22.2898 160.359 22.5966 159.764 22.8239C159.173 23.0473 158.505 23.1591 157.759 23.1591C156.721 23.1591 155.793 22.9242 154.974 22.4545C154.16 21.9848 153.516 21.3049 153.043 20.4148C152.573 19.5246 152.338 18.447 152.338 17.1818C152.338 15.9129 152.577 14.8333 153.054 13.9432C153.531 13.053 154.179 12.375 154.997 11.9091C155.815 11.4394 156.736 11.2045 157.759 11.2045C158.433 11.2045 159.058 11.2992 159.634 11.4886C160.213 11.678 160.726 11.9545 161.173 12.3182C161.62 12.678 161.984 13.1193 162.264 13.642C162.548 14.1648 162.73 14.7633 162.81 15.4375ZM164.074 16.1761V14.2727H171.983V16.1761H169.17V23H166.864V16.1761H164.074ZM173.45 23V14.2727H177.172C178.248 14.2727 179.098 14.4773 179.723 14.8864C180.348 15.2955 180.661 15.8769 180.661 16.6307C180.661 17.1042 180.484 17.4981 180.132 17.8125C179.78 18.1269 179.291 18.339 178.666 18.4489C179.189 18.4867 179.634 18.6061 180.001 18.8068C180.373 19.0038 180.655 19.2595 180.848 19.5739C181.045 19.8883 181.143 20.2367 181.143 20.6193C181.143 21.1155 181.011 21.5417 180.746 21.8977C180.484 22.2538 180.1 22.5265 179.592 22.7159C179.089 22.9053 178.473 23 177.746 23H173.45ZM175.706 21.1875H177.746C178.083 21.1875 178.346 21.108 178.536 20.9489C178.729 20.786 178.825 20.5644 178.825 20.2841C178.825 19.9735 178.729 19.7292 178.536 19.5511C178.346 19.3731 178.083 19.2841 177.746 19.2841H175.706V21.1875ZM175.706 17.8636H177.223C177.465 17.8636 177.672 17.8295 177.842 17.7614C178.017 17.6894 178.149 17.5871 178.24 17.4545C178.335 17.322 178.382 17.1648 178.382 16.983C178.382 16.714 178.274 16.5038 178.058 16.3523C177.842 16.2008 177.547 16.125 177.172 16.125H175.706V17.8636ZM186.612 23.1705C185.73 23.1705 184.966 22.983 184.322 22.608C183.682 22.2292 183.188 21.7027 182.839 21.0284C182.491 20.3504 182.317 19.5644 182.317 18.6705C182.317 17.7689 182.491 16.9811 182.839 16.3068C183.188 15.6288 183.682 15.1023 184.322 14.7273C184.966 14.3485 185.73 14.1591 186.612 14.1591C187.495 14.1591 188.256 14.3485 188.896 14.7273C189.54 15.1023 190.036 15.6288 190.385 16.3068C190.733 16.9811 190.908 17.7689 190.908 18.6705C190.908 19.5644 190.733 20.3504 190.385 21.0284C190.036 21.7027 189.54 22.2292 188.896 22.608C188.256 22.983 187.495 23.1705 186.612 23.1705ZM186.624 21.2955C187.025 21.2955 187.36 21.1818 187.629 20.9545C187.898 20.7235 188.101 20.4091 188.237 20.0114C188.377 19.6136 188.447 19.161 188.447 18.6534C188.447 18.1458 188.377 17.6932 188.237 17.2955C188.101 16.8977 187.898 16.5833 187.629 16.3523C187.36 16.1212 187.025 16.0057 186.624 16.0057C186.218 16.0057 185.877 16.1212 185.601 16.3523C185.328 16.5833 185.122 16.8977 184.982 17.2955C184.845 17.6932 184.777 18.1458 184.777 18.6534C184.777 19.161 184.845 19.6136 184.982 20.0114C185.122 20.4091 185.328 20.7235 185.601 20.9545C185.877 21.1818 186.218 21.2955 186.624 21.2955ZM192.482 26.2727V14.2727H194.868V15.7386H194.976C195.082 15.5038 195.235 15.2652 195.436 15.0227C195.641 14.7765 195.906 14.572 196.232 14.4091C196.561 14.2424 196.97 14.1591 197.459 14.1591C198.095 14.1591 198.682 14.3258 199.22 14.6591C199.758 14.9886 200.188 15.4867 200.51 16.1534C200.832 16.8163 200.993 17.6477 200.993 18.6477C200.993 19.6212 200.836 20.4432 200.521 21.1136C200.211 21.7803 199.786 22.286 199.249 22.6307C198.714 22.9716 198.116 23.142 197.453 23.142C196.983 23.142 196.584 23.0644 196.254 22.9091C195.929 22.7538 195.661 22.5587 195.453 22.3239C195.245 22.0852 195.086 21.8447 194.976 21.6023H194.902V26.2727H192.482ZM194.851 18.6364C194.851 19.1553 194.923 19.608 195.067 19.9943C195.211 20.3807 195.419 20.6818 195.692 20.8977C195.964 21.1098 196.296 21.2159 196.686 21.2159C197.08 21.2159 197.413 21.108 197.686 20.892C197.959 20.6723 198.165 20.3693 198.305 19.983C198.449 19.5928 198.521 19.1439 198.521 18.6364C198.521 18.1326 198.451 17.6894 198.311 17.3068C198.171 16.9242 197.964 16.625 197.692 16.4091C197.419 16.1932 197.084 16.0852 196.686 16.0852C196.292 16.0852 195.959 16.1894 195.686 16.3977C195.417 16.6061 195.211 16.9015 195.067 17.2841C194.923 17.6667 194.851 18.1174 194.851 18.6364ZM207.43 17.7216V19.642H202.697V17.7216H207.43ZM204.567 14.2727V23H202.152V14.2727H204.567ZM210.044 23.1705C209.18 23.1705 208.434 22.9773 207.805 22.5909C207.177 22.2045 206.692 21.6705 206.351 20.9886C206.014 20.3068 205.845 19.5246 205.845 18.642C205.845 17.7595 206.014 16.9811 206.351 16.3068C206.692 15.6326 207.177 15.1061 207.805 14.7273C208.434 14.3485 209.18 14.1591 210.044 14.1591C210.911 14.1591 211.658 14.3485 212.283 14.7273C212.911 15.1061 213.394 15.6326 213.732 16.3068C214.072 16.9811 214.243 17.7595 214.243 18.642C214.243 19.5246 214.072 20.3068 213.732 20.9886C213.394 21.6705 212.911 22.2045 212.283 22.5909C211.658 22.9773 210.911 23.1705 210.044 23.1705ZM210.044 21.2159C210.495 21.2159 210.858 21.1061 211.135 20.8864C211.411 20.6629 211.614 20.358 211.743 19.9716C211.872 19.5814 211.936 19.1383 211.936 18.642C211.936 18.1458 211.872 17.7064 211.743 17.3239C211.614 16.9375 211.411 16.6345 211.135 16.4148C210.858 16.1951 210.495 16.0852 210.044 16.0852C209.597 16.0852 209.233 16.1951 208.953 16.4148C208.673 16.6307 208.466 16.9299 208.334 17.3125C208.205 17.6951 208.141 18.1383 208.141 18.642C208.141 19.142 208.205 19.5852 208.334 19.9716C208.466 20.358 208.673 20.6629 208.953 20.8864C209.233 21.1061 209.597 21.2159 210.044 21.2159ZM218.2 19.8068L221.342 14.2727H223.729V23H221.422V17.4489L218.291 23H215.888V14.2727H218.2V19.8068ZM220.928 11.2273H222.615C222.611 11.9167 222.356 12.4716 221.848 12.892C221.344 13.3125 220.662 13.5227 219.803 13.5227C218.939 13.5227 218.255 13.3125 217.751 12.892C217.248 12.4716 216.996 11.9167 216.996 11.2273H218.672C218.668 11.4886 218.751 11.7235 218.922 11.9318C219.096 12.1402 219.39 12.2443 219.803 12.2443C220.204 12.2443 220.492 12.142 220.666 11.9375C220.84 11.733 220.928 11.4962 220.928 11.2273ZM227.084 23.1477C226.709 23.1477 226.387 23.0152 226.118 22.75C225.853 22.4811 225.72 22.1591 225.72 21.7841C225.72 21.4129 225.853 21.0947 226.118 20.8295C226.387 20.5644 226.709 20.4318 227.084 20.4318C227.447 20.4318 227.766 20.5644 228.038 20.8295C228.311 21.0947 228.447 21.4129 228.447 21.7841C228.447 22.0341 228.383 22.2633 228.254 22.4716C228.129 22.6761 227.964 22.8409 227.76 22.9659C227.555 23.0871 227.33 23.1477 227.084 23.1477Z" fill="#4F00B4"/>
<path d="M53 34L87.9295 69.0388H293.179L338 114" stroke="white"/>
<path d="M341.644 129V117.364H346.303C347.159 117.364 347.873 117.491 348.445 117.744C349.017 117.998 349.447 118.35 349.735 118.801C350.023 119.248 350.167 119.763 350.167 120.347C350.167 120.801 350.076 121.201 349.894 121.545C349.712 121.886 349.462 122.167 349.144 122.386C348.83 122.602 348.47 122.756 348.065 122.847V122.96C348.508 122.979 348.923 123.104 349.309 123.335C349.699 123.566 350.015 123.89 350.258 124.307C350.5 124.72 350.621 125.212 350.621 125.784C350.621 126.402 350.468 126.953 350.161 127.438C349.858 127.919 349.409 128.299 348.815 128.58C348.22 128.86 347.487 129 346.616 129H341.644ZM344.104 126.989H346.11C346.796 126.989 347.296 126.858 347.61 126.597C347.924 126.331 348.082 125.979 348.082 125.54C348.082 125.218 348.004 124.934 347.849 124.688C347.693 124.441 347.472 124.248 347.184 124.108C346.9 123.968 346.561 123.898 346.167 123.898H344.104V126.989ZM344.104 122.233H345.928C346.265 122.233 346.565 122.174 346.826 122.057C347.091 121.936 347.299 121.765 347.451 121.545C347.606 121.326 347.684 121.062 347.684 120.756C347.684 120.335 347.534 119.996 347.235 119.739C346.94 119.481 346.519 119.352 345.974 119.352H344.104V122.233ZM352.177 129V120.273H354.597V129H352.177ZM353.393 119.148C353.033 119.148 352.724 119.028 352.467 118.79C352.213 118.547 352.086 118.258 352.086 117.92C352.086 117.587 352.213 117.301 352.467 117.062C352.724 116.82 353.033 116.699 353.393 116.699C353.753 116.699 354.059 116.82 354.313 117.062C354.571 117.301 354.7 117.587 354.7 117.92C354.7 118.258 354.571 118.547 354.313 118.79C354.059 119.028 353.753 119.148 353.393 119.148ZM355.854 131.557V127.08H356.525C356.718 126.958 356.873 126.765 356.991 126.5C357.112 126.235 357.21 125.922 357.286 125.562C357.366 125.203 357.426 124.814 357.468 124.398C357.513 123.977 357.553 123.553 357.587 123.125L357.815 120.273H364.508V127.08H365.86V131.557H363.553V129H358.218V131.557H355.854ZM358.934 127.08H362.224V122.136H359.871L359.781 123.125C359.716 124.057 359.623 124.848 359.502 125.5C359.381 126.148 359.192 126.674 358.934 127.08ZM376.013 117.364V129H373.553V119.699H373.485L370.82 121.369V119.188L373.701 117.364H376.013ZM378.779 129V127.227L382.921 123.392C383.273 123.051 383.569 122.744 383.808 122.472C384.05 122.199 384.234 121.932 384.359 121.67C384.484 121.405 384.546 121.119 384.546 120.812C384.546 120.472 384.469 120.178 384.313 119.932C384.158 119.682 383.946 119.491 383.677 119.358C383.408 119.222 383.103 119.153 382.762 119.153C382.406 119.153 382.095 119.225 381.83 119.369C381.565 119.513 381.361 119.72 381.217 119.989C381.073 120.258 381.001 120.578 381.001 120.949H378.665C378.665 120.187 378.838 119.527 379.183 118.966C379.527 118.405 380.01 117.972 380.631 117.665C381.253 117.358 381.969 117.205 382.779 117.205C383.612 117.205 384.338 117.352 384.955 117.648C385.576 117.939 386.059 118.345 386.404 118.864C386.749 119.383 386.921 119.977 386.921 120.648C386.921 121.087 386.834 121.521 386.66 121.949C386.489 122.377 386.184 122.852 385.745 123.375C385.306 123.894 384.686 124.517 383.887 125.244L382.188 126.909V126.989H387.075V129H378.779ZM394.317 123.261V125.182H389.011V123.261H394.317ZM395.738 122.176V120.273H403.647V122.176H400.835V129H398.528V122.176H395.738ZM407.427 125.807L410.569 120.273H412.955V129H410.648V123.449L407.518 129H405.114V120.273H407.427V125.807ZM417.917 131.557V127.08H418.587C418.781 126.958 418.936 126.765 419.053 126.5C419.174 126.235 419.273 125.922 419.349 125.562C419.428 125.203 419.489 124.814 419.531 124.398C419.576 123.977 419.616 123.553 419.65 123.125L419.877 120.273H426.57V127.08H427.923V131.557H425.616V129H420.281V131.557H417.917ZM420.996 127.08H424.286V122.136H421.934L421.843 123.125C421.779 124.057 421.686 124.848 421.565 125.5C421.443 126.148 421.254 126.674 420.996 127.08ZM433.276 129.17C432.394 129.17 431.63 128.983 430.987 128.608C430.346 128.229 429.852 127.703 429.504 127.028C429.155 126.35 428.981 125.564 428.981 124.67C428.981 123.769 429.155 122.981 429.504 122.307C429.852 121.629 430.346 121.102 430.987 120.727C431.63 120.348 432.394 120.159 433.276 120.159C434.159 120.159 434.92 120.348 435.56 120.727C436.204 121.102 436.701 121.629 437.049 122.307C437.397 122.981 437.572 123.769 437.572 124.67C437.572 125.564 437.397 126.35 437.049 127.028C436.701 127.703 436.204 128.229 435.56 128.608C434.92 128.983 434.159 129.17 433.276 129.17ZM433.288 127.295C433.689 127.295 434.024 127.182 434.293 126.955C434.562 126.723 434.765 126.409 434.901 126.011C435.041 125.614 435.112 125.161 435.112 124.653C435.112 124.146 435.041 123.693 434.901 123.295C434.765 122.898 434.562 122.583 434.293 122.352C434.024 122.121 433.689 122.006 433.288 122.006C432.882 122.006 432.541 122.121 432.265 122.352C431.992 122.583 431.786 122.898 431.646 123.295C431.509 123.693 431.441 124.146 431.441 124.653C431.441 125.161 431.509 125.614 431.646 126.011C431.786 126.409 431.992 126.723 432.265 126.955C432.541 127.182 432.882 127.295 433.288 127.295ZM447.888 117.364V129H445.428V119.699H445.36L442.695 121.369V119.188L445.576 117.364H447.888ZM455.12 129.159C454.522 129.155 453.944 129.055 453.387 128.858C452.834 128.661 452.338 128.341 451.898 127.898C451.459 127.455 451.111 126.867 450.853 126.136C450.599 125.405 450.472 124.508 450.472 123.443C450.476 122.466 450.588 121.593 450.808 120.824C451.031 120.051 451.349 119.396 451.762 118.858C452.179 118.32 452.677 117.911 453.256 117.631C453.836 117.347 454.486 117.205 455.205 117.205C455.982 117.205 456.667 117.356 457.262 117.659C457.857 117.958 458.334 118.366 458.694 118.881C459.058 119.396 459.277 119.973 459.353 120.614H456.927C456.832 120.208 456.633 119.89 456.33 119.659C456.027 119.428 455.652 119.312 455.205 119.312C454.448 119.312 453.872 119.642 453.478 120.301C453.088 120.96 452.889 121.856 452.881 122.989H452.961C453.135 122.644 453.37 122.35 453.665 122.108C453.965 121.862 454.304 121.674 454.683 121.545C455.065 121.413 455.469 121.347 455.893 121.347C456.582 121.347 457.196 121.509 457.734 121.835C458.272 122.157 458.696 122.6 459.006 123.165C459.317 123.729 459.472 124.375 459.472 125.102C459.472 125.89 459.289 126.591 458.921 127.205C458.558 127.818 458.048 128.299 457.393 128.648C456.741 128.992 455.984 129.163 455.12 129.159ZM455.109 127.227C455.487 127.227 455.826 127.136 456.126 126.955C456.425 126.773 456.66 126.527 456.83 126.216C457.001 125.905 457.086 125.557 457.086 125.17C457.086 124.784 457.001 124.437 456.83 124.131C456.664 123.824 456.433 123.58 456.137 123.398C455.842 123.216 455.504 123.125 455.126 123.125C454.842 123.125 454.578 123.178 454.336 123.284C454.097 123.39 453.887 123.538 453.705 123.727C453.527 123.917 453.387 124.136 453.285 124.386C453.183 124.633 453.131 124.896 453.131 125.176C453.131 125.551 453.217 125.894 453.387 126.205C453.561 126.515 453.796 126.763 454.092 126.949C454.391 127.134 454.73 127.227 455.109 127.227ZM466.677 123.261V125.182H461.37V123.261H466.677ZM468.097 122.176V120.273H476.006V122.176H473.194V129H470.887V122.176H468.097ZM479.786 125.807L482.928 120.273H485.315V129H483.008V123.449L479.877 129H477.474V120.273H479.786V125.807ZM496.117 126.324L498.481 120.273H500.322L496.918 129H495.31L491.987 120.273H493.822L496.117 126.324ZM493.271 120.273V129H490.958V120.273H493.271ZM499.083 129V120.273H501.367V129H499.083ZM503.239 129V120.273H505.66V129H503.239ZM504.455 119.148C504.095 119.148 503.787 119.028 503.529 118.79C503.275 118.547 503.148 118.258 503.148 117.92C503.148 117.587 503.275 117.301 503.529 117.062C503.787 116.82 504.095 116.699 504.455 116.699C504.815 116.699 505.122 116.82 505.376 117.062C505.633 117.301 505.762 117.587 505.762 117.92C505.762 118.258 505.633 118.547 505.376 118.79C505.122 119.028 504.815 119.148 504.455 119.148ZM511.542 129.17C510.648 129.17 509.879 128.981 509.235 128.602C508.595 128.22 508.103 127.689 507.758 127.011C507.417 126.333 507.246 125.553 507.246 124.67C507.246 123.777 507.419 122.992 507.763 122.318C508.112 121.64 508.606 121.112 509.246 120.733C509.887 120.35 510.648 120.159 511.531 120.159C512.292 120.159 512.959 120.297 513.531 120.574C514.103 120.85 514.555 121.239 514.888 121.739C515.222 122.239 515.406 122.826 515.44 123.5H513.156C513.091 123.064 512.921 122.714 512.644 122.449C512.371 122.18 512.013 122.045 511.57 122.045C511.195 122.045 510.868 122.148 510.587 122.352C510.311 122.553 510.095 122.847 509.94 123.233C509.784 123.619 509.707 124.087 509.707 124.636C509.707 125.193 509.782 125.667 509.934 126.057C510.089 126.447 510.307 126.744 510.587 126.949C510.868 127.153 511.195 127.256 511.57 127.256C511.847 127.256 512.095 127.199 512.315 127.085C512.538 126.972 512.722 126.807 512.866 126.591C513.013 126.371 513.11 126.108 513.156 125.801H515.44C515.402 126.468 515.22 127.055 514.894 127.562C514.572 128.066 514.127 128.46 513.559 128.744C512.991 129.028 512.318 129.17 511.542 129.17ZM522.103 129V122.17H520.467C520.023 122.17 519.686 122.273 519.455 122.477C519.224 122.682 519.111 122.924 519.114 123.205C519.111 123.489 519.22 123.729 519.444 123.926C519.671 124.119 520.004 124.216 520.444 124.216H522.91V125.852H520.444C519.698 125.852 519.052 125.739 518.506 125.511C517.961 125.284 517.54 124.968 517.245 124.562C516.95 124.153 516.804 123.678 516.808 123.136C516.804 122.568 516.95 122.07 517.245 121.642C517.54 121.21 517.963 120.875 518.512 120.636C519.065 120.394 519.717 120.273 520.467 120.273H524.359V129H522.103ZM516.558 129L518.984 124.455H521.296L518.876 129H516.558ZM533.87 120.273V127.33H535.262V131.807H532.91V129H526.239V120.273H528.552V127.097H531.586V120.273H533.87ZM536.755 129V120.273H539.175V129H536.755ZM537.971 119.148C537.611 119.148 537.302 119.028 537.045 118.79C536.791 118.547 536.664 118.258 536.664 117.92C536.664 117.587 536.791 117.301 537.045 117.062C537.302 116.82 537.611 116.699 537.971 116.699C538.331 116.699 538.638 116.82 538.891 117.062C539.149 117.301 539.278 117.587 539.278 117.92C539.278 118.258 539.149 118.547 538.891 118.79C538.638 119.028 538.331 119.148 537.971 119.148ZM541.114 129V120.273H544.836C545.912 120.273 546.762 120.477 547.387 120.886C548.012 121.295 548.325 121.877 548.325 122.631C548.325 123.104 548.148 123.498 547.796 123.812C547.444 124.127 546.955 124.339 546.33 124.449C546.853 124.487 547.298 124.606 547.665 124.807C548.037 125.004 548.319 125.259 548.512 125.574C548.709 125.888 548.808 126.237 548.808 126.619C548.808 127.116 548.675 127.542 548.41 127.898C548.148 128.254 547.764 128.527 547.256 128.716C546.753 128.905 546.137 129 545.41 129H541.114ZM543.37 127.188H545.41C545.747 127.188 546.01 127.108 546.2 126.949C546.393 126.786 546.489 126.564 546.489 126.284C546.489 125.973 546.393 125.729 546.2 125.551C546.01 125.373 545.747 125.284 545.41 125.284H543.37V127.188ZM543.37 123.864H544.887C545.129 123.864 545.336 123.83 545.506 123.761C545.681 123.689 545.813 123.587 545.904 123.455C545.999 123.322 546.046 123.165 546.046 122.983C546.046 122.714 545.938 122.504 545.722 122.352C545.506 122.201 545.211 122.125 544.836 122.125H543.37V123.864Z" fill="white"/>
</svg>
