<svg width="72" height="60" viewBox="0 0 72 60" fill="none" xmlns="http://www.w3.org/2000/svg">
<path d="M72 7.21266e-07L0 0V39L18 60H72V7.21266e-07Z" fill="#EAEBF0"/>
<path d="M39.8781 47H32.1219C31.7377 46.995 31.3707 46.84 31.0991 46.568C30.8274 46.2961 30.6726 45.9287 30.6676 45.5441V30.5L20.2935 16.31C20.1296 16.0966 20.0297 15.8409 20.0057 15.5727C19.9816 15.3046 20.0344 15.0351 20.1578 14.7959C20.2814 14.5574 20.4677 14.3572 20.6967 14.2169C20.9257 14.0766 21.1885 14.0016 21.457 14H50.543C50.8115 14.0016 51.0743 14.0766 51.3033 14.2169C51.5323 14.3572 51.7186 14.5574 51.8422 14.7959C51.9656 15.0351 52.0184 15.3046 51.9943 15.5727C51.9703 15.8409 51.8704 16.0966 51.7065 16.31L41.3324 30.5V45.5441C41.3274 45.9287 41.1726 46.2961 40.9009 46.568C40.6293 46.84 40.2623 46.995 39.8781 47ZM33.5762 44.0882H38.4238V30.0147C38.4208 29.7051 38.5234 29.4038 38.7147 29.1606L47.6344 16.9118H24.3656L33.3241 29.1606C33.5154 29.4038 33.618 29.7051 33.6149 30.0147L33.5762 44.0882Z" fill="#1A1A1A"/>
</svg>
