<svg width="587" height="403" viewBox="0 0 587 403" fill="none" xmlns="http://www.w3.org/2000/svg">
<path d="M16.3809 0.5L0.5 27.1855L0.5 402L324.885 402L331.789 388.314L331.928 388.04L544.029 388.04L544.174 388.29L552.077 402H586.5L586.5 0.5L16.3809 0.5Z" fill="#121212" stroke="#F5F5F5"/>
<line x1="215.364" y1="59.0034" x2="215.364" y2="44.5541" stroke="white"/>
<line x1="215.632" y1="33.5833" x2="215.632" y2="19.1339" stroke="white"/>
<line x1="235.933" y1="39.7024" x2="221.483" y2="39.7024" stroke="white"/>
<line x1="210.513" y1="39.4349" x2="196.063" y2="39.4349" stroke="white"/>
<line x1="131.251" y1="59.0757" x2="131.251" y2="44.6263" stroke="white"/>
<line x1="131.519" y1="33.6555" x2="131.519" y2="19.2062" stroke="white"/>
<line x1="151.819" y1="39.7747" x2="137.37" y2="39.7747" stroke="white"/>
<line x1="126.399" y1="39.5071" x2="111.95" y2="39.5071" stroke="white"/>
<line x1="47.4346" y1="59.0757" x2="47.4346" y2="44.6263" stroke="white"/>
<line x1="47.7021" y1="33.6555" x2="47.7021" y2="19.2062" stroke="white"/>
<line x1="68.0029" y1="39.7747" x2="53.5536" y2="39.7747" stroke="white"/>
<line x1="42.583" y1="39.5071" x2="28.1337" y2="39.5071" stroke="white"/>
</svg>
