<svg width="185" height="52" viewBox="0 0 185 52" fill="none" xmlns="http://www.w3.org/2000/svg">
<path d="M183.331 45.5003C183.331 48.2411 180.991 50.4613 178.096 50.4613H6.76376C3.8702 50.4613 1.52148 48.2411 1.52148 45.5003V5.93815C1.52148 3.19861 3.8702 0.970703 6.76376 0.970703H178.094C180.991 0.970703 183.33 3.19861 183.33 5.93815L183.331 45.5003Z" fill="black"/>
<path d="M177.543 1.03051C180.696 1.03051 183.261 3.45261 183.261 6.4292V45.0027C183.261 47.9793 180.696 50.4014 177.543 50.4014H7.30935C4.15662 50.4014 1.5912 47.9793 1.5912 45.0027V6.4292C1.5912 3.45261 4.15662 1.03051 7.30935 1.03051H177.543ZM177.543 0.000277232H7.30935C3.56591 0.000277232 0.5 2.8949 0.5 6.4292V45.0027C0.5 48.537 3.56591 51.4316 7.30935 51.4316H177.543C181.287 51.4316 184.353 48.537 184.353 45.0027V6.4292C184.353 2.8949 181.287 0.000277232 177.543 0.000277232Z" fill="#A6A6A6"/>
<path d="M41.5294 25.4384C41.4899 21.2943 45.1234 19.2782 45.2896 19.1843C43.2318 16.3517 40.0423 15.9647 38.9215 15.9339C36.2427 15.6677 33.6442 17.4472 32.2796 17.4472C30.8878 17.4472 28.7864 15.9596 26.5216 16.0033C23.6072 16.0457 20.8808 17.6388 19.3854 20.1127C16.2994 25.1568 18.601 32.5693 21.5576 36.6465C23.0366 38.6434 24.7648 40.8729 27.0269 40.7945C29.2399 40.7083 30.0666 39.4624 32.7372 39.4624C35.3833 39.4624 36.1596 40.7945 38.4666 40.7443C40.8417 40.7083 42.337 38.7385 43.7643 36.7237C45.4734 34.435 46.1598 32.181 46.187 32.0653C46.1312 32.0473 41.5744 30.4054 41.5294 25.4384Z" fill="white"/>
<path d="M37.1714 13.2517C38.3617 11.8463 39.1761 9.93439 38.9501 7.99414C37.2273 8.06614 35.0728 9.1192 33.8321 10.4937C32.7345 11.7049 31.7539 13.6902 32.0072 15.5571C33.9425 15.6934 35.9294 14.6352 37.1714 13.2517Z" fill="white"/>
<path d="M73.5565 40.5077H70.4637L68.7695 35.4816H62.8808L61.267 40.5077H58.2559L64.0901 23.3965H67.6936L73.5565 40.5077ZM68.2588 33.3729L66.7267 28.9048C66.5646 28.4483 66.2609 27.3734 65.8129 25.6813H65.7584C65.58 26.4091 65.2926 27.484 64.8977 28.9048L63.3928 33.3729H68.2588V33.3729Z" fill="white"/>
<path d="M88.5616 34.1868C88.5616 36.2852 87.961 37.9438 86.7599 39.1615C85.684 40.2454 84.348 40.7867 82.7532 40.7867C81.0318 40.7867 79.7952 40.203 79.0421 39.0355H78.9877V45.5351H76.0841V32.2311C76.0841 30.9119 76.0474 29.558 75.9766 28.1693H78.5301L78.6921 30.125H78.7466C79.7149 28.6515 81.1844 27.916 83.1563 27.916C84.698 27.916 85.9849 28.4908 87.0145 29.6415C88.0468 30.7936 88.5616 32.3083 88.5616 34.1868ZM85.6036 34.2871C85.6036 33.0862 85.3176 32.0961 84.7429 31.3169C84.1151 30.5043 83.2721 30.098 82.2153 30.098C81.4989 30.098 80.848 30.3243 80.2665 30.7705C79.6836 31.2205 79.3022 31.8081 79.1238 32.5358C79.034 32.8753 78.989 33.153 78.989 33.3716V35.4289C78.989 36.3263 79.2805 37.0837 79.8633 37.7021C80.4462 38.3206 81.2034 38.6292 82.1349 38.6292C83.2285 38.6292 84.0797 38.2306 84.6884 37.436C85.2986 36.6401 85.6036 35.5909 85.6036 34.2871Z" fill="white"/>
<path d="M103.591 34.1868C103.591 36.2852 102.991 37.9438 101.788 39.1615C100.714 40.2454 99.3779 40.7867 97.7831 40.7867C96.0617 40.7867 94.8251 40.203 94.0734 39.0355H94.0189V45.5351H91.1154V32.2311C91.1154 30.9119 91.0786 29.558 91.0078 28.1693H93.5613L93.7234 30.125H93.7779C94.7448 28.6515 96.2142 27.916 98.1876 27.916C99.7279 27.916 101.015 28.4908 102.047 29.6415C103.075 30.7936 103.591 32.3083 103.591 34.1868ZM100.634 34.2871C100.634 33.0862 100.346 32.0961 99.7714 31.3169C99.1436 30.5043 98.3034 30.098 97.2452 30.098C96.5275 30.098 95.8779 30.3243 95.295 30.7705C94.7121 31.2205 94.3321 31.8081 94.1537 32.5358C94.0652 32.8753 94.0189 33.153 94.0189 33.3716V35.4289C94.0189 36.3263 94.3103 37.0837 94.8905 37.7021C95.4734 38.3193 96.2306 38.6292 97.1648 38.6292C98.2584 38.6292 99.1096 38.2306 99.7183 37.436C100.328 36.6401 100.634 35.5909 100.634 34.2871Z" fill="white"/>
<path d="M120.398 35.7089C120.398 37.1644 119.863 38.3486 118.788 39.2628C117.607 40.2619 115.964 40.7608 113.851 40.7608C111.901 40.7608 110.338 40.4059 109.154 39.6948L109.827 37.41C111.102 38.1378 112.5 38.5029 114.024 38.5029C115.118 38.5029 115.969 38.2689 116.581 37.8035C117.189 37.338 117.493 36.7131 117.493 35.9339C117.493 35.2396 117.242 34.6546 116.74 34.1801C116.24 33.7057 115.405 33.2646 114.24 32.857C111.066 31.7397 109.481 30.1029 109.481 27.9505C109.481 26.5438 110.037 25.3905 111.149 24.493C112.258 23.5942 113.737 23.1455 115.586 23.1455C117.236 23.1455 118.606 23.4168 119.699 23.9581L118.973 26.1928C117.952 25.6682 116.797 25.4059 115.505 25.4059C114.483 25.4059 113.685 25.6438 113.113 26.117C112.63 26.54 112.387 27.0556 112.387 27.6663C112.387 28.3426 112.664 28.902 113.219 29.3417C113.703 29.748 114.581 30.1878 115.856 30.6622C117.415 31.255 118.561 31.948 119.298 32.7426C120.032 33.5346 120.398 34.526 120.398 35.7089Z" fill="white"/>
<path d="M129.998 30.2263H126.797V36.2168C126.797 37.7404 127.361 38.5016 128.492 38.5016C129.01 38.5016 129.441 38.4592 129.781 38.3743L129.862 40.456C129.29 40.6579 128.537 40.7594 127.604 40.7594C126.457 40.7594 125.561 40.429 124.914 39.7694C124.27 39.1085 123.946 38.0001 123.946 36.4431V30.2237H122.039V28.1665H123.946V25.9073L126.797 25.0947V28.1665H129.998V30.2263Z" fill="white"/>
<path d="M144.437 34.2366C144.437 36.1332 143.862 37.6902 142.715 38.9079C141.513 40.1615 139.917 40.7864 137.927 40.7864C136.01 40.7864 134.483 40.1859 133.344 38.985C132.206 37.7841 131.637 36.2682 131.637 34.4411C131.637 32.5291 132.222 30.963 133.397 29.7454C134.57 28.5265 136.153 27.917 138.142 27.917C140.06 27.917 141.603 28.5175 142.767 29.7197C143.881 30.8859 144.437 32.3915 144.437 34.2366ZM141.424 34.3253C141.424 33.1874 141.167 32.2115 140.645 31.3976C140.037 30.4127 139.166 29.9215 138.039 29.9215C136.872 29.9215 135.985 30.414 135.376 31.3976C134.855 32.2128 134.597 33.2041 134.597 34.3768C134.597 35.5147 134.855 36.4906 135.376 37.3032C136.004 38.2881 136.881 38.7793 138.013 38.7793C139.121 38.7793 139.992 38.2778 140.619 37.2775C141.155 36.4482 141.424 35.462 141.424 34.3253Z" fill="white"/>
<path d="M153.875 30.5802C153.587 30.53 153.281 30.5043 152.96 30.5043C151.938 30.5043 151.148 30.8682 150.593 31.5972C150.109 32.2401 149.867 33.0527 149.867 34.0338V40.5077H146.965L146.992 32.055C146.992 30.6329 146.955 29.3381 146.883 28.1706H149.412L149.518 30.5313H149.598C149.905 29.72 150.388 29.0668 151.05 28.5769C151.697 28.1359 152.396 27.916 153.149 27.916C153.417 27.916 153.66 27.934 153.875 27.9662V30.5802Z" fill="white"/>
<path d="M166.86 33.7545C166.86 34.2456 166.826 34.6597 166.754 34.9978H158.044C158.078 36.2167 158.498 37.1489 159.307 37.7918C160.041 38.3666 160.991 38.6546 162.156 38.6546C163.446 38.6546 164.623 38.4604 165.681 38.0708L166.136 39.9738C164.899 40.483 163.439 40.7363 161.755 40.7363C159.728 40.7363 158.138 40.1731 156.98 39.048C155.825 37.923 155.246 36.4122 155.246 34.5169C155.246 32.6564 155.784 31.107 156.862 29.8714C157.989 28.5522 159.513 27.8926 161.431 27.8926C163.314 27.8926 164.74 28.5522 165.708 29.8714C166.475 30.9193 166.86 32.2154 166.86 33.7545ZM164.092 33.0434C164.111 32.2308 163.921 31.5288 163.528 30.936C163.025 30.1736 162.253 29.793 161.214 29.793C160.265 29.793 159.493 30.1646 158.903 30.9103C158.419 31.5031 158.132 32.2141 158.044 33.0421H164.092V33.0434Z" fill="white"/>
<path d="M67.2992 12.8697C67.2992 14.383 66.8184 15.5222 65.8583 16.2873C64.969 16.9932 63.7052 17.3468 62.0682 17.3468C61.2565 17.3468 60.562 17.3133 59.9805 17.2465V8.9776C60.739 8.86188 61.5562 8.80273 62.4386 8.80273C63.998 8.80273 65.1733 9.12289 65.9659 9.76322C66.8538 10.4871 67.2992 11.5222 67.2992 12.8697ZM65.7943 12.907C65.7943 11.9259 65.5192 11.1737 64.969 10.6491C64.4188 10.1258 63.6153 9.86351 62.5571 9.86351C62.1077 9.86351 61.725 9.89179 61.4077 9.95094V16.2371C61.5834 16.2629 61.9048 16.2744 62.3719 16.2744C63.4641 16.2744 64.3071 15.9877 64.9009 15.4142C65.4947 14.8408 65.7943 14.005 65.7943 12.907Z" fill="white"/>
<path d="M75.2801 14.1913C75.2801 15.1235 74.9982 15.8872 74.4343 16.4864C73.8433 17.1023 73.0602 17.4096 72.0824 17.4096C71.14 17.4096 70.3896 17.1152 69.8299 16.5237C69.2715 15.9335 68.9923 15.1891 68.9923 14.2916C68.9923 13.353 69.2797 12.5828 69.8571 11.9849C70.4345 11.387 71.2108 11.0874 72.1886 11.0874C73.131 11.0874 73.8882 11.3818 74.4616 11.972C75.0063 12.5455 75.2801 13.2861 75.2801 14.1913ZM73.7997 14.235C73.7997 13.6757 73.6717 13.1961 73.417 12.7962C73.1174 12.3128 72.6912 12.071 72.1369 12.071C71.5635 12.071 71.1277 12.3128 70.8281 12.7962C70.5721 13.1961 70.4454 13.6834 70.4454 14.2594C70.4454 14.8187 70.5734 15.2983 70.8281 15.6982C71.1373 16.1817 71.5676 16.4234 72.1233 16.4234C72.668 16.4234 73.0956 16.1778 73.4034 15.6854C73.6676 15.2778 73.7997 14.7943 73.7997 14.235Z" fill="white"/>
<path d="M85.9773 11.2109L83.9686 17.2721H82.6612L81.8291 14.6401C81.618 13.9831 81.4464 13.3299 81.3129 12.6819H81.2871C81.1631 13.3479 80.9915 13.9998 80.7709 14.6401L79.8871 17.2721H78.5647L76.6758 11.2109H78.1425L78.8684 14.0924C79.0441 14.7738 79.1884 15.4232 79.3042 16.0378H79.3301C79.4363 15.5312 79.612 14.8857 79.8598 14.1052L80.7709 11.2122H81.934L82.8069 14.0435C83.018 14.734 83.1896 15.3987 83.3217 16.0391H83.3612C83.4579 15.4155 83.6036 14.7507 83.797 14.0435L84.576 11.2122H85.9773V11.2109Z" fill="white"/>
<path d="M93.3772 17.272H91.95V13.8004C91.95 12.7306 91.5196 12.1957 90.6562 12.1957C90.2327 12.1957 89.8909 12.3423 89.6253 12.6367C89.3624 12.9312 89.229 13.2783 89.229 13.6756V17.2707H87.8017V12.9427C87.8017 12.4104 87.784 11.8331 87.75 11.2082H89.0043L89.071 12.1558H89.1105C89.2767 11.8614 89.5245 11.6184 89.85 11.4242C90.2368 11.1979 90.6698 11.0835 91.1438 11.0835C91.743 11.0835 92.2414 11.2661 92.6377 11.6325C93.1307 12.0813 93.3772 12.7512 93.3772 13.6409V17.272V17.272Z" fill="white"/>
<path d="M97.3126 17.272H95.8867V8.42969H97.3126V17.272Z" fill="white"/>
<path d="M105.715 14.1913C105.715 15.1235 105.434 15.8872 104.87 16.4864C104.279 17.1023 103.494 17.4096 102.518 17.4096C101.574 17.4096 100.824 17.1152 100.265 16.5237C99.7069 15.9335 99.4277 15.1891 99.4277 14.2916C99.4277 13.353 99.7151 12.5828 100.293 11.9849C100.87 11.387 101.646 11.0874 102.623 11.0874C103.566 11.0874 104.322 11.3818 104.897 11.972C105.442 12.5455 105.715 13.2861 105.715 14.1913ZM104.234 14.235C104.234 13.6757 104.106 13.1961 103.851 12.7962C103.553 12.3128 103.125 12.071 102.572 12.071C101.998 12.071 101.562 12.3128 101.264 12.7962C101.008 13.1961 100.881 13.6834 100.881 14.2594C100.881 14.8187 101.009 15.2983 101.264 15.6982C101.573 16.1817 102.003 16.4234 102.559 16.4234C103.103 16.4234 103.53 16.1778 103.837 15.6854C104.103 15.2778 104.234 14.7943 104.234 14.235Z" fill="white"/>
<path d="M112.622 17.272H111.34L111.234 16.5738H111.195C110.756 17.1306 110.131 17.4096 109.319 17.4096C108.713 17.4096 108.223 17.2257 107.854 16.8606C107.519 16.5288 107.352 16.1161 107.352 15.6262C107.352 14.8856 107.678 14.3211 108.336 13.9303C108.993 13.5394 109.916 13.3478 111.105 13.3568V13.2437C111.105 12.4452 110.661 12.0466 109.772 12.0466C109.138 12.0466 108.58 12.197 108.098 12.4953L107.808 11.6107C108.404 11.2623 109.141 11.0874 110.01 11.0874C111.688 11.0874 112.529 11.9232 112.529 13.5947V15.8268C112.529 16.4324 112.561 16.9146 112.622 17.272ZM111.14 15.1891V14.2543C109.566 14.2286 108.779 14.6362 108.779 15.4758C108.779 15.7921 108.869 16.0287 109.053 16.1868C109.236 16.345 109.471 16.4234 109.75 16.4234C110.063 16.4234 110.356 16.3295 110.623 16.1431C110.891 15.9554 111.056 15.7175 111.117 15.4256C111.132 15.3601 111.14 15.2803 111.14 15.1891Z" fill="white"/>
<path d="M120.734 17.272H119.467L119.401 16.2987H119.361C118.957 17.0393 118.268 17.4096 117.299 17.4096C116.526 17.4096 115.882 17.1229 115.371 16.5494C114.86 15.976 114.605 15.2315 114.605 14.3173C114.605 13.3362 114.882 12.5416 115.438 11.9347C115.976 11.369 116.635 11.0861 117.419 11.0861C118.281 11.0861 118.884 11.36 119.228 11.909H119.255V8.42969H120.683V15.6391C120.683 16.2293 120.7 16.7731 120.734 17.272ZM119.255 14.7159V13.7053C119.255 13.5304 119.241 13.389 119.215 13.281C119.135 12.9569 118.962 12.6843 118.699 12.4645C118.434 12.2446 118.114 12.134 117.745 12.134C117.212 12.134 116.795 12.3333 116.489 12.7332C116.185 13.1331 116.031 13.6435 116.031 14.2671C116.031 14.8663 116.177 15.3524 116.47 15.7265C116.779 16.1251 117.196 16.3244 117.717 16.3244C118.186 16.3244 118.56 16.1585 118.845 15.8255C119.12 15.5182 119.255 15.1479 119.255 14.7159Z" fill="white"/>
<path d="M132.94 14.1913C132.94 15.1235 132.658 15.8872 132.094 16.4864C131.503 17.1023 130.722 17.4096 129.742 17.4096C128.801 17.4096 128.051 17.1152 127.49 16.5237C126.932 15.9335 126.652 15.1891 126.652 14.2916C126.652 13.353 126.94 12.5828 127.517 11.9849C128.095 11.387 128.871 11.0874 129.85 11.0874C130.791 11.0874 131.55 11.3818 132.122 11.972C132.666 12.5455 132.94 13.2861 132.94 14.1913ZM131.461 14.235C131.461 13.6757 131.333 13.1961 131.078 12.7962C130.777 12.3128 130.353 12.071 129.797 12.071C129.225 12.071 128.789 12.3128 128.488 12.7962C128.232 13.1961 128.105 13.6834 128.105 14.2594C128.105 14.8187 128.233 15.2983 128.488 15.6982C128.797 16.1817 129.228 16.4234 129.783 16.4234C130.328 16.4234 130.757 16.1778 131.065 15.6854C131.328 15.2778 131.461 14.7943 131.461 14.235Z" fill="white"/>
<path d="M140.614 17.272H139.188V13.8004C139.188 12.7306 138.758 12.1957 137.893 12.1957C137.47 12.1957 137.128 12.3423 136.864 12.6367C136.599 12.9312 136.467 13.2783 136.467 13.6756V17.2707H135.039V12.9427C135.039 12.4104 135.022 11.8331 134.988 11.2082H136.241L136.308 12.1558H136.347C136.515 11.8614 136.763 11.6184 137.087 11.4242C137.475 11.1979 137.907 11.0835 138.382 11.0835C138.98 11.0835 139.478 11.2661 139.875 11.6325C140.369 12.0813 140.614 12.7512 140.614 13.6409V17.272V17.272Z" fill="white"/>
<path d="M150.219 12.22H148.647V15.1645C148.647 15.9128 148.926 16.287 149.479 16.287C149.735 16.287 149.948 16.2664 150.115 16.224L150.152 17.2462C149.87 17.3464 149.499 17.3966 149.043 17.3966C148.479 17.3966 148.041 17.2346 147.724 16.9106C147.405 16.5865 147.247 16.0414 147.247 15.2763V12.22H146.309V11.2107H147.247V10.0998L148.646 9.70117V11.2094H150.217V12.22H150.219Z" fill="white"/>
<path d="M157.775 17.272H156.346V13.8261C156.346 12.7396 155.916 12.1957 155.054 12.1957C154.392 12.1957 153.94 12.5108 153.692 13.1408C153.65 13.2732 153.625 13.4352 153.625 13.6255V17.2707H152.199V8.42969H153.625V12.0826H153.652C154.102 11.4179 154.746 11.0861 155.581 11.0861C156.172 11.0861 156.661 11.2687 157.049 11.6351C157.532 12.0916 157.775 12.7705 157.775 13.668V17.272V17.272Z" fill="white"/>
<path d="M165.569 13.9546C165.569 14.1963 165.55 14.3994 165.516 14.5653H161.235C161.255 15.1645 161.459 15.6209 161.855 15.9372C162.217 16.2201 162.684 16.3615 163.256 16.3615C163.89 16.3615 164.467 16.2664 164.987 16.0748L165.211 17.0109C164.602 17.2603 163.886 17.385 163.056 17.385C162.062 17.385 161.279 17.1086 160.712 16.5557C160.143 16.0028 159.861 15.2609 159.861 14.33C159.861 13.4158 160.124 12.6546 160.654 12.0477C161.207 11.3997 161.955 11.0757 162.898 11.0757C163.822 11.0757 164.523 11.3997 164.997 12.0477C165.38 12.562 165.569 13.1985 165.569 13.9546ZM164.207 13.6061C164.218 13.2062 164.124 12.8616 163.931 12.5711C163.683 12.1969 163.305 12.0092 162.795 12.0092C162.329 12.0092 161.949 12.1917 161.659 12.5582C161.422 12.8501 161.282 13.1985 161.235 13.6061H164.207Z" fill="white"/>
</svg>
