<svg width="184" height="52" viewBox="0 0 184 52" fill="none" xmlns="http://www.w3.org/2000/svg">
<path d="M177.2 52H7.20026C3.46197 52 0.400269 49.1054 0.400269 45.5711V6.99755C0.400269 3.46325 3.46197 0.568632 7.20026 0.568632H177.2C180.938 0.568632 184 3.46325 184 6.99755V45.5711C184 49.1054 180.938 52 177.2 52Z" fill="black"/>
<path d="M177.2 1.59886C180.348 1.59886 182.91 4.02096 182.91 6.99755V45.5711C182.91 48.5477 180.348 50.9698 177.2 50.9698H7.20026C4.05186 50.9698 1.48997 48.5477 1.48997 45.5711V6.99755C1.48997 4.02096 4.05186 1.59886 7.20026 1.59886H177.2ZM177.2 0.568632H7.20026C3.46197 0.568632 0.400269 3.46325 0.400269 6.99755V45.5711C0.400269 49.1054 3.46197 52 7.20026 52H177.2C180.938 52 184 49.1054 184 45.5711V6.99755C184 3.46325 180.938 0.568632 177.2 0.568632Z" fill="#A6A6A6"/>
<path d="M64.8871 13.7403C64.8871 14.814 64.5471 15.6738 63.8773 16.3151C63.1072 17.0753 62.1042 17.4579 60.8751 17.4579C59.7004 17.4579 58.6974 17.0689 57.8746 16.3023C57.0501 15.5244 56.6387 14.5697 56.6387 13.4269C56.6387 12.2842 57.0501 11.3295 57.8746 10.558C58.6974 9.78495 59.7004 9.396 60.8751 9.396C61.4599 9.396 62.0175 9.51011 62.5496 9.72226C63.08 9.93603 63.5118 10.2253 63.8246 10.5821L63.114 11.2604C62.5683 10.6512 61.8254 10.3507 60.8751 10.3507C60.0183 10.3507 59.2754 10.6336 58.6447 11.2041C58.0208 11.7763 57.708 12.5172 57.708 13.4269C57.708 14.3366 58.0208 15.084 58.6447 15.6562C59.2754 16.2203 60.0183 16.5096 60.8751 16.5096C61.7846 16.5096 62.5496 16.2203 63.1531 15.6497C63.5509 15.272 63.777 14.7513 63.8365 14.0859H60.8751V13.1569H64.8259C64.8735 13.3578 64.8871 13.5523 64.8871 13.7403V13.7403Z" fill="white" stroke="white" stroke-width="0.16" stroke-miterlimit="10"/>
<path d="M71.1562 10.5194H67.4451V12.9624H70.7907V13.8914H67.4451V16.3344H71.1562V17.281H66.3945V9.57275H71.1562V10.5194Z" fill="white" stroke="white" stroke-width="0.16" stroke-miterlimit="10"/>
<path d="M75.5788 17.281H74.5282V10.5194H72.252V9.57275H77.8568V10.5194H75.5788V17.281V17.281Z" fill="white" stroke="white" stroke-width="0.16" stroke-miterlimit="10"/>
<path d="M81.9141 17.281V9.57275H82.963V17.281H81.9141Z" fill="white" stroke="white" stroke-width="0.16" stroke-miterlimit="10"/>
<path d="M87.6101 17.281H86.568V10.5194H84.2832V9.57275H89.8949V10.5194H87.6101V17.281Z" fill="white" stroke="white" stroke-width="0.16" stroke-miterlimit="10"/>
<path d="M100.508 16.2894C99.7041 17.0689 98.7079 17.4579 97.5196 17.4579C96.3245 17.4579 95.3283 17.0689 94.5242 16.2894C93.7218 15.5115 93.3223 14.5568 93.3223 13.4269C93.3223 12.297 93.7218 11.3424 94.5242 10.5645C95.3283 9.78495 96.3245 9.396 97.5196 9.396C98.7011 9.396 99.6973 9.78495 100.501 10.5709C101.311 11.3552 101.71 12.3035 101.71 13.4269C101.71 14.5568 101.311 15.5115 100.508 16.2894ZM95.3011 15.6433C95.9063 16.2203 96.6424 16.5096 97.5196 16.5096C98.39 16.5096 99.1329 16.2203 99.7313 15.6433C100.335 15.0663 100.641 14.3254 100.641 13.4269C100.641 12.5285 100.335 11.7876 99.7313 11.2106C99.1329 10.6336 98.39 10.3443 97.5196 10.3443C96.6424 10.3443 95.9063 10.6336 95.3011 11.2106C94.6976 11.7876 94.3916 12.5285 94.3916 13.4269C94.3916 14.3254 94.6976 15.0663 95.3011 15.6433V15.6433Z" fill="white" stroke="white" stroke-width="0.16" stroke-miterlimit="10"/>
<path d="M103.183 17.281V9.57275H104.458L108.423 15.5677H108.469L108.423 14.0859V9.57275H109.472V17.281H108.377L104.225 10.9903H104.18L104.225 12.4786V17.281H103.183V17.281Z" fill="white" stroke="white" stroke-width="0.16" stroke-miterlimit="10"/>
<path d="M93.062 28.538C89.8677 28.538 87.2582 30.8363 87.2582 34.0074C87.2582 37.1527 89.8677 39.4752 93.062 39.4752C96.2631 39.4752 98.8726 37.1527 98.8726 34.0074C98.8726 30.8363 96.2631 28.538 93.062 28.538ZM93.062 37.3215C91.3093 37.3215 89.8014 35.9537 89.8014 34.0074C89.8014 32.0353 91.3093 30.6917 93.062 30.6917C94.8147 30.6917 96.3294 32.0353 96.3294 34.0074C96.3294 35.9537 94.8147 37.3215 93.062 37.3215V37.3215ZM80.3987 28.538C77.1977 28.538 74.595 30.8363 74.595 34.0074C74.595 37.1527 77.1977 39.4752 80.3987 39.4752C83.5981 39.4752 86.2025 37.1527 86.2025 34.0074C86.2025 30.8363 83.5981 28.538 80.3987 28.538ZM80.3987 37.3215C78.6444 37.3215 77.1314 35.9537 77.1314 34.0074C77.1314 32.0353 78.6444 30.6917 80.3987 30.6917C82.1514 30.6917 83.6593 32.0353 83.6593 34.0074C83.6593 35.9537 82.1514 37.3215 80.3987 37.3215ZM65.33 30.2143V32.5384H71.2001C71.0284 33.837 70.5694 34.7917 69.8656 35.4571C69.0088 36.2607 67.6743 37.1527 65.33 37.1527C61.7175 37.1527 58.8887 34.3963 58.8887 30.981C58.8887 27.5656 61.7175 24.8092 65.33 24.8092C67.2833 24.8092 68.7045 25.5308 69.7534 26.4662L71.4857 24.8285C70.0186 23.5041 68.067 22.4867 65.33 22.4867C60.3762 22.4867 56.2129 26.2975 56.2129 30.981C56.2129 35.6644 60.3762 39.4752 65.33 39.4752C68.0075 39.4752 70.0186 38.6458 71.5996 37.09C73.2197 35.5583 73.7246 33.4047 73.7246 31.6656C73.7246 31.1256 73.677 30.629 73.592 30.2143H65.33ZM126.948 32.016C126.47 30.7929 124.996 28.538 121.994 28.538C119.019 28.538 116.542 30.7543 116.542 34.0074C116.542 37.0708 118.994 39.4752 122.28 39.4752C124.937 39.4752 126.47 37.9435 127.101 37.0515L125.129 35.8091C124.471 36.7188 123.575 37.3215 122.28 37.3215C120.993 37.3215 120.07 36.7638 119.478 35.6644L127.215 32.638L126.948 32.016V32.016ZM119.06 33.837C118.994 31.7283 120.792 30.6483 122.081 30.6483C123.091 30.6483 123.948 31.1256 124.233 31.8087L119.06 33.837V33.837ZM112.772 39.1425H115.315V23.0702H112.772V39.1425ZM108.607 29.7562H108.522C107.951 29.1166 106.861 28.538 105.481 28.538C102.584 28.538 99.9351 30.9424 99.9351 34.025C99.9351 37.09 102.584 39.4752 105.481 39.4752C106.861 39.4752 107.951 38.8917 108.522 38.2328H108.607V39.0171C108.607 41.1081 107.425 42.2316 105.52 42.2316C103.966 42.2316 103.002 41.1708 102.604 40.2788L100.392 41.1515C101.03 42.6012 102.718 44.3853 105.52 44.3853C108.501 44.3853 111.017 42.7266 111.017 38.6908V28.8707H108.607V29.7562V29.7562ZM105.698 37.3215C103.945 37.3215 102.478 35.9344 102.478 34.025C102.478 32.098 103.945 30.6917 105.698 30.6917C107.425 30.6917 108.787 32.098 108.787 34.025C108.787 35.9344 107.425 37.3215 105.698 37.3215V37.3215ZM138.855 23.0702H132.772V39.1425H135.309V33.0527H138.855C141.672 33.0527 144.434 31.1256 144.434 28.0606C144.434 24.9972 141.665 23.0702 138.855 23.0702V23.0702ZM138.921 30.817H135.309V25.3058H138.921C140.815 25.3058 141.896 26.7925 141.896 28.0606C141.896 29.3046 140.815 30.817 138.921 30.817ZM154.6 28.5074C152.768 28.5074 150.862 29.2725 150.078 30.9681L152.329 31.8601C152.814 30.9681 153.704 30.6788 154.646 30.6788C155.962 30.6788 157.296 31.4262 157.317 32.7457V32.9145C156.858 32.6637 155.875 32.2925 154.667 32.2925C152.242 32.2925 149.772 33.5541 149.772 35.9087C149.772 38.0624 151.758 39.4495 153.99 39.4495C155.697 39.4495 156.639 38.7214 157.23 37.8744H157.317V39.1168H159.767V32.9514C159.767 30.1018 157.516 28.5074 154.6 28.5074ZM154.294 37.3151C153.465 37.3151 152.309 36.9261 152.309 35.9537C152.309 34.7097 153.75 34.2324 154.998 34.2324C156.115 34.2324 156.639 34.4654 157.317 34.7724C157.118 36.2607 155.763 37.3151 154.294 37.3151V37.3151ZM168.692 28.8594L165.776 35.8268H165.689L162.675 28.8594H159.94L164.469 38.596L161.885 44.014H164.535L171.514 28.8594H168.692V28.8594ZM145.828 39.1425H148.371V23.0702H145.828V39.1425Z" fill="white"/>
<path d="M14.5916 10.2622C14.1921 10.6576 13.9609 11.2732 13.9609 12.0703V40.5055C13.9609 41.3027 14.1921 41.9182 14.5916 42.3136L14.6902 42.4004L31.544 26.4727V26.0966L14.6902 10.169L14.5916 10.2622Z" fill="url(#paint0_linear_15_423)"/>
<path d="M37.1547 31.7847L31.543 26.4728V26.0967L37.1615 20.7848L37.2873 20.8539L43.9411 24.4332C45.8399 25.449 45.8399 27.1205 43.9411 28.1427L37.2873 31.7156L37.1547 31.7847V31.7847Z" fill="url(#paint1_linear_15_423)"/>
<path d="M37.2885 31.7156L31.5442 26.2847L14.5918 42.3137C15.2225 42.9405 16.251 43.016 17.4206 42.3892L37.2885 31.7156" fill="url(#paint2_linear_15_423)"/>
<path d="M37.2885 20.8538L17.4206 10.1802C16.251 9.55983 15.2225 9.63537 14.5918 10.2622L31.5442 26.2847L37.2885 20.8538Z" fill="url(#paint3_linear_15_423)"/>
<defs>
<linearGradient id="paint0_linear_15_423" x1="30.0476" y1="40.8016" x2="8.50298" y2="18.0134" gradientUnits="userSpaceOnUse">
<stop stop-color="#00A0FF"/>
<stop offset="0.0066" stop-color="#00A1FF"/>
<stop offset="0.2601" stop-color="#00BEFF"/>
<stop offset="0.5122" stop-color="#00D2FF"/>
<stop offset="0.7604" stop-color="#00DFFF"/>
<stop offset="1" stop-color="#00E3FF"/>
</linearGradient>
<linearGradient id="paint1_linear_15_423" x1="46.4137" y1="26.2829" x2="13.506" y2="26.2829" gradientUnits="userSpaceOnUse">
<stop stop-color="#FFE000"/>
<stop offset="0.4087" stop-color="#FFBD00"/>
<stop offset="0.7754" stop-color="#FFA500"/>
<stop offset="1" stop-color="#FF9C00"/>
</linearGradient>
<linearGradient id="paint2_linear_15_423" x1="34.1649" y1="23.3325" x2="4.94864" y2="-7.57012" gradientUnits="userSpaceOnUse">
<stop stop-color="#FF3A44"/>
<stop offset="1" stop-color="#C31162"/>
</linearGradient>
<linearGradient id="paint3_linear_15_423" x1="10.3245" y1="51.7738" x2="23.3709" y2="37.9745" gradientUnits="userSpaceOnUse">
<stop stop-color="#32A071"/>
<stop offset="0.0685" stop-color="#2DA771"/>
<stop offset="0.4762" stop-color="#15CF74"/>
<stop offset="0.8009" stop-color="#06E775"/>
<stop offset="1" stop-color="#00F076"/>
</linearGradient>
</defs>
</svg>
